<svg width="67" height="29" viewBox="0 0 67 29" fill="none" xmlns="http://www.w3.org/2000/svg">
<path fill-rule="evenodd" clip-rule="evenodd" d="M9.17837 5.8213C10.4273 5.92703 11.6763 5.18689 12.4569 4.2485C13.2245 3.28367 13.7319 1.98843 13.6018 0.666748C12.4959 0.719615 11.1299 1.40689 10.3493 2.37172C9.63372 3.20437 9.02225 4.55249 9.17837 5.8213ZM24.034 22.8446V2.23965H31.6449C35.574 2.23965 38.3191 4.98874 38.3191 9.00665C38.3191 13.0246 35.5219 15.8001 31.5408 15.8001H27.1825V22.8446H24.034ZM13.5878 6.07251C12.4875 6.00818 11.4835 6.40868 10.6725 6.73217C10.1507 6.94035 9.70875 7.11664 9.37254 7.11664C8.99524 7.11664 8.53507 6.93093 8.0184 6.72241C7.3414 6.44919 6.5674 6.13682 5.75574 6.15181C3.8953 6.17825 2.16496 7.24881 1.21523 8.95377C-0.736283 12.3637 0.707834 17.4125 2.59429 20.188C3.51801 21.5626 4.62386 23.0693 6.08099 23.0164C6.72204 22.9919 7.18317 22.7931 7.6604 22.5874C8.20982 22.3505 8.78058 22.1045 9.67177 22.1045C10.5321 22.1045 11.0779 22.3441 11.6018 22.5741C12.1 22.7929 12.5784 23.0029 13.2886 22.99C14.7977 22.9636 15.7475 21.6155 16.6712 20.2409C17.668 18.7657 18.1061 17.3259 18.1726 17.1074L18.1803 17.0821C18.1788 17.0805 18.1664 17.0748 18.1447 17.0647C17.8115 16.9097 15.2645 15.7251 15.2401 12.5487C15.2155 9.88261 17.2603 8.53179 17.5821 8.31915L17.5823 8.31908C17.6018 8.30618 17.615 8.29748 17.6209 8.29293C16.3199 6.33685 14.2903 6.12538 13.5878 6.07251ZM44.0701 23.003C46.0477 23.003 47.8821 21.9853 48.7147 20.3729H48.7798V22.8444H51.694V12.5882C51.694 9.61441 49.3522 7.69797 45.7484 7.69797C42.4049 7.69797 39.9329 9.64084 39.8419 12.3106H42.6781C42.9123 11.0418 44.0701 10.2092 45.6574 10.2092C47.5829 10.2092 48.6627 11.1211 48.6627 12.7997V13.9363L44.7337 14.1742C41.0778 14.3989 39.1003 15.9188 39.1003 18.5622C39.1003 21.232 41.1429 23.003 44.0701 23.003ZM44.915 20.5581C43.2367 20.5581 42.1699 19.7387 42.1699 18.4831C42.1699 17.1879 43.1977 16.4345 45.1622 16.3156L48.6619 16.0909V17.2539C48.6619 19.1836 47.0487 20.5581 44.915 20.5581ZM61.3621 23.6507C60.1001 27.2589 58.656 28.4484 55.5856 28.4484C55.3515 28.4484 54.5709 28.422 54.3887 28.3691V25.8976C54.5839 25.924 55.0652 25.9504 55.3124 25.9504C56.7045 25.9504 57.4851 25.3557 57.9665 23.8093L58.2527 22.8973L52.9186 7.89628H56.2101L59.918 20.0689H59.983L63.6909 7.89628H66.8914L61.3621 23.6507ZM27.1837 4.93587H30.8135C33.5456 4.93587 35.1068 6.41615 35.1068 9.01986C35.1068 11.6236 33.5456 13.1171 30.8005 13.1171H27.1837V4.93587Z" fill="black"/>
</svg>
