<svg width="55" height="47" viewBox="0 0 55 47" fill="none" xmlns="http://www.w3.org/2000/svg">
<path fill-rule="evenodd" clip-rule="evenodd" d="M7.30685 32.6423H3.17336C2.8905 32.6423 2.64993 32.8486 2.60582 33.1288L0.934024 43.7663C0.900795 43.9763 1.06277 44.1655 1.27492 44.1655H3.24829C3.53115 44.1655 3.77172 43.9591 3.81583 43.6784L4.26673 40.8094C4.31023 40.5284 4.55138 40.3224 4.83366 40.3224H6.14218C8.86506 40.3224 10.4364 39 10.847 36.3796C11.0319 35.2332 10.8548 34.3324 10.3198 33.7014C9.7324 33.0089 8.69024 32.6423 7.30685 32.6423ZM7.78373 36.5275C7.55774 38.0161 6.42445 38.0161 5.32867 38.0161H4.70491L5.1425 35.236C5.16849 35.0682 5.31354 34.9444 5.48278 34.9444H5.76866C6.5151 34.9444 7.2193 34.9444 7.58319 35.3713C7.79996 35.6262 7.86653 36.0046 7.78373 36.5275ZM19.6629 36.4798H17.6834C17.5148 36.4798 17.3691 36.6036 17.343 36.7717L17.2555 37.3273L17.117 37.126C16.6885 36.5017 15.7331 36.2932 14.7793 36.2932C12.5918 36.2932 10.7237 37.9558 10.3598 40.2881C10.1707 41.4513 10.4395 42.5638 11.0971 43.3396C11.7004 44.0529 12.5635 44.3502 13.5903 44.3502C15.3527 44.3502 16.3302 43.2127 16.3302 43.2127L16.2419 43.7649C16.2086 43.976 16.3705 44.1652 16.5814 44.1652H18.3645C18.6481 44.1652 18.8873 43.9589 18.932 43.6781L20.0019 36.879C20.0357 36.6699 19.8743 36.4798 19.6629 36.4798ZM16.9036 40.3462C16.7126 41.4811 15.815 42.2429 14.6705 42.2429C14.0957 42.2429 13.6362 42.0579 13.3414 41.7073C13.0488 41.3593 12.9375 40.8635 13.0306 40.3117C13.2091 39.1864 14.1217 38.3998 15.2489 38.3998C15.8108 38.3998 16.2679 38.587 16.5688 38.9407C16.8703 39.2981 16.9901 39.7966 16.9036 40.3462ZM28.2158 36.4795H30.205C30.4836 36.4795 30.6461 36.7931 30.4878 37.0224L23.8721 46.6062C23.765 46.7614 23.5885 46.8537 23.3999 46.8537H21.4132C21.1335 46.8537 20.9702 46.5377 21.1321 46.3078L23.1921 43.3896L21.0012 36.9368C20.9254 36.7125 21.0905 36.4795 21.3282 36.4795H23.2827C23.5367 36.4795 23.7608 36.6468 23.834 36.8908L24.9968 40.788L27.7403 36.7324C27.8477 36.5741 28.0262 36.4795 28.2158 36.4795Z" fill="#253B80"/>
<path fill-rule="evenodd" clip-rule="evenodd" d="M49.7832 43.7669L51.4795 32.9348C51.5056 32.7667 51.6507 32.6429 51.8194 32.6423H53.7292C53.9401 32.6423 54.102 32.8321 54.0687 33.0421L52.3958 43.679C52.3522 43.9597 52.1117 44.166 51.8283 44.166H50.1227C49.9118 44.166 49.7499 43.9768 49.7832 43.7669ZM36.7914 32.6429H32.6571C32.3749 32.6429 32.1344 32.8492 32.0902 33.1294L30.4184 43.7669C30.3851 43.9768 30.5471 44.166 30.7582 44.166H32.8795C33.0767 44.166 33.2453 44.0217 33.2761 43.8252L33.7505 40.8099C33.7941 40.529 34.0352 40.3229 34.3174 40.3229H35.6253C38.3487 40.3229 39.9198 39.0005 40.3307 36.3802C40.5161 35.2338 40.338 34.333 39.8032 33.702C39.2161 33.0095 38.1748 32.6429 36.7914 32.6429ZM37.2683 36.5281C37.0428 38.0167 35.9095 38.0167 34.8131 38.0167H34.1899L34.6282 35.2366C34.6542 35.0687 34.798 34.9449 34.9677 34.9449H35.2536C35.9995 34.9449 36.7044 34.9449 37.068 35.3719C37.285 35.6268 37.3511 36.0051 37.2683 36.5281ZM49.1463 36.4804H47.1682C46.9982 36.4804 46.8539 36.6042 46.8284 36.7723L46.7409 37.3278L46.6019 37.1266C46.1734 36.5023 45.2185 36.2937 44.2647 36.2937C42.0771 36.2937 40.2096 37.9563 39.8457 40.2887C39.6572 41.4519 39.9249 42.5643 40.5824 43.3402C41.1869 44.0534 42.0489 44.3507 43.0757 44.3507C44.8381 44.3507 45.8153 43.2133 45.8153 43.2133L45.7272 43.7655C45.6939 43.9765 45.8559 44.1657 46.0682 44.1657H47.8504C48.1326 44.1657 48.3732 43.9594 48.4174 43.6787L49.4878 36.8795C49.5205 36.6704 49.3586 36.4804 49.1463 36.4804ZM46.3873 40.3468C46.1974 41.4817 45.2987 42.2435 44.1539 42.2435C43.5803 42.2435 43.1199 42.0585 42.8248 41.7079C42.5322 41.3598 42.4223 40.8641 42.5143 40.3122C42.6936 39.1869 43.6051 38.4004 44.7323 38.4004C45.2945 38.4004 45.7513 38.5876 46.0525 38.9413C46.3552 39.2986 46.4749 39.7972 46.3873 40.3468Z" fill="#179BD7"/>
<path d="M22.6041 28.8371L23.1123 25.5978L21.9804 25.5714H16.5752L20.3316 1.66783C20.343 1.59566 20.3811 1.52838 20.4365 1.4806C20.4918 1.43282 20.5629 1.40649 20.6367 1.40649H29.7507C32.7765 1.40649 34.8645 2.03838 35.9548 3.28557C36.4658 3.87067 36.7913 4.48207 36.9488 5.15491C37.1138 5.86093 37.1169 6.70441 36.9555 7.73319L36.9438 7.80828V8.46745L37.4551 8.75806C37.8855 8.9872 38.2273 9.24952 38.4897 9.54987C38.9271 10.0501 39.2099 10.6859 39.3293 11.4397C39.4527 12.2149 39.4119 13.1374 39.2099 14.1818C38.9766 15.3831 38.5996 16.4295 38.0906 17.2856C37.6221 18.0745 37.0255 18.7287 36.3173 19.2359C35.6409 19.7176 34.8374 20.0834 33.9289 20.3175C33.0484 20.5474 32.0448 20.6636 30.9439 20.6636H30.2346C29.7275 20.6636 29.2347 20.8469 28.8481 21.1756C28.4605 21.511 28.2037 21.9691 28.1251 22.4705L28.0717 22.7621L27.1739 28.4713L27.133 28.681C27.1224 28.7475 27.1039 28.7806 27.0768 28.8031C27.0525 28.8233 27.0175 28.8371 26.9834 28.8371H22.6041Z" fill="#253B80"/>
<path d="M37.9384 7.88477C37.9113 8.05931 37.8803 8.23775 37.8453 8.42108C36.6431 14.6142 32.5313 16.7536 27.2793 16.7536H24.6054C23.9632 16.7536 23.422 17.2217 23.3219 17.8575L21.9527 26.5714L21.5651 29.0413C21.4999 29.4587 21.8207 29.8351 22.2403 29.8351H26.9831C27.5448 29.8351 28.0217 29.4256 28.1101 28.8698L28.1568 28.6278L29.0498 22.9408L29.1072 22.6289C29.1945 22.0712 29.6725 21.6616 30.2341 21.6616H30.9434C35.5383 21.6616 39.1355 19.7894 40.1869 14.3714C40.6261 12.1081 40.3987 10.2183 39.2365 8.88915C38.8849 8.48836 38.4486 8.15584 37.9384 7.88477Z" fill="#179BD7"/>
<path d="M36.6806 7.38169C36.4971 7.32804 36.3075 7.27929 36.1131 7.23541C35.9179 7.19252 35.7176 7.15449 35.5117 7.12133C34.7907 7.00431 34.0008 6.94873 33.1544 6.94873H26.0109C25.835 6.94873 25.668 6.9887 25.5183 7.06087C25.1888 7.2198 24.9441 7.53284 24.8848 7.91606L23.3649 17.5758L23.3213 17.8576C23.4214 17.2218 23.9626 16.7537 24.6048 16.7537H27.2788C32.5307 16.7537 36.6428 14.6133 37.8447 8.42118C37.8805 8.23786 37.9107 8.05941 37.9378 7.88487C37.6338 7.72299 37.3043 7.58452 36.9497 7.46651C36.8624 7.43727 36.7721 7.409 36.6806 7.38169Z" fill="#222D65"/>
<path d="M24.8853 7.91603C24.9446 7.53279 25.1896 7.21978 25.5188 7.0618C25.6696 6.98963 25.8357 6.94966 26.0114 6.94966H33.1552C34.0016 6.94966 34.7914 7.00524 35.5122 7.12226C35.7184 7.15541 35.9186 7.19345 36.1139 7.23634C36.3083 7.28024 36.4976 7.329 36.6814 7.38261C36.7726 7.40992 36.8629 7.43819 36.9513 7.46649C37.3059 7.58447 37.6354 7.72392 37.9395 7.88482C38.2972 5.59617 37.9367 4.0379 36.7038 2.62687C35.3444 1.07349 32.8909 0.408447 29.7515 0.408447H20.6372C19.9959 0.408447 19.4491 0.87649 19.3498 1.51326L15.5537 25.6625C15.4787 26.1403 15.846 26.5715 16.3259 26.5715H21.9529L23.3657 17.5757L24.8853 7.91603Z" fill="#253B80"/>
</svg>
