<svg width="67" height="22" viewBox="0 0 67 22" fill="none" xmlns="http://www.w3.org/2000/svg">
<path fill-rule="evenodd" clip-rule="evenodd" d="M17.2337 21.3552H11.5997L7.37489 5.17949C7.17436 4.43541 6.74858 3.7776 6.12228 3.46757C4.55926 2.68844 2.83692 2.06838 0.958008 1.75565V1.13288H10.0339C11.2865 1.13288 12.226 2.06838 12.3826 3.15484L14.5746 14.8229L20.2059 1.13288H25.6833L17.2337 21.3552ZM28.8149 21.3552H23.4941L27.8755 1.13288H33.1963L28.8149 21.3552ZM40.0792 6.73507C40.2357 5.64591 41.1752 5.02315 42.2712 5.02315C43.9936 4.86678 45.8697 5.17951 47.4355 5.95595L48.3749 1.602C46.8092 0.979233 45.0868 0.666504 43.5238 0.666504C38.3596 0.666504 34.6017 3.46759 34.6017 7.35514C34.6017 10.3126 37.2635 11.8655 39.1424 12.8009C41.1752 13.7337 41.9581 14.3565 41.8015 15.2893C41.8015 16.6885 40.2357 17.3113 38.6727 17.3113C36.7938 17.3113 34.9149 16.8449 33.1953 16.0657L32.2558 20.4224C34.1348 21.1988 36.1675 21.5115 38.0464 21.5115C43.837 21.6652 47.4355 18.8668 47.4355 14.6665C47.4355 9.3771 40.0792 9.06707 40.0792 6.73507V6.73507ZM66.0589 21.3552L61.8341 1.13288H57.2961C56.3567 1.13288 55.4172 1.75565 55.1041 2.68844L47.2808 21.3552H52.7582L53.8515 18.4004H60.5815L61.2078 21.3552H66.0589ZM58.078 6.57893L59.641 14.2004H55.2596L58.078 6.57893Z" fill="#172B85"/>
</svg>
