<svg width="67" height="28" viewBox="0 0 67 28" fill="none" xmlns="http://www.w3.org/2000/svg">
<path fill-rule="evenodd" clip-rule="evenodd" d="M30.9236 22.0214V13.9655H35.0665C36.7642 13.9655 38.1971 13.3946 39.3652 12.2687L39.6456 11.9833C41.7794 9.65214 41.6392 6.02066 39.3652 3.86396C38.2283 2.72219 36.6708 2.10372 35.0665 2.13544H28.416V22.0214H30.9236ZM30.925 11.5231V4.57731H35.1309C36.0344 4.57731 36.8911 4.92619 37.5298 5.56051C38.8851 6.89258 38.9162 9.11271 37.6077 10.4924C36.969 11.1743 36.0655 11.5548 35.1309 11.5231H30.925ZM51.342 9.47764C50.2674 8.47859 48.8033 7.97113 46.9499 7.97113C44.5669 7.97113 42.7758 8.85918 41.5921 10.6194L43.8037 12.0308C44.6136 10.8256 45.7195 10.223 47.1212 10.223C48.009 10.223 48.8656 10.556 49.5353 11.1586C50.1895 11.7295 50.5633 12.5541 50.5633 13.4263V14.013C49.5976 13.4739 48.3828 13.1884 46.8876 13.1884C45.1432 13.1884 43.7414 13.6007 42.6979 14.4412C41.6544 15.2817 41.1248 16.3917 41.1248 17.8031C41.0937 19.0876 41.6388 20.3087 42.6045 21.1333C43.5857 22.0213 44.8317 22.4654 46.2957 22.4654C48.0246 22.4654 49.3952 21.6883 50.4387 20.1342H50.5477V22.0213H52.9463V13.6324C52.9463 11.8722 52.4167 10.4767 51.342 9.47764ZM44.5356 19.5161C44.0215 19.1355 43.71 18.5171 43.71 17.851C43.71 17.1057 44.0527 16.4872 44.7225 15.9956C45.4079 15.504 46.2647 15.2503 47.2772 15.2503C48.6792 15.2345 49.7696 15.5516 50.5485 16.1859C50.5485 17.2643 50.1279 18.1999 49.3023 18.9928C48.5546 19.754 47.542 20.1822 46.4828 20.1822C45.7818 20.198 45.0964 19.9602 44.5356 19.5161ZM58.3365 28.0002L66.7158 8.41558H63.9902L60.112 18.1841H60.0653L56.0937 8.41558H53.368L58.866 21.1496L55.751 28.0002H58.3365Z" fill="#3C4043"/>
<path d="M22.2672 12.2215C22.2672 11.4445 22.2049 10.6674 22.0803 9.90625H11.5049V14.2989H17.5636C17.3144 15.7103 16.5045 16.9789 15.3208 17.7718V20.6263H18.9342C21.0524 18.644 22.2672 15.7103 22.2672 12.2215Z" fill="#4285F4"/>
<path d="M11.505 23.3851C14.5265 23.3851 17.0808 22.3702 18.9342 20.6258L15.3208 17.7714C14.3085 18.4691 13.0157 18.8656 11.505 18.8656C8.57686 18.8656 6.10043 16.8516 5.21266 14.1558H1.49023V17.1054C3.39038 20.9589 7.26856 23.3851 11.505 23.3851Z" fill="#34A853"/>
<path d="M5.21251 14.1563C4.74519 12.7449 4.74519 11.2067 5.21251 9.77944V6.8457H1.48949C-0.114987 10.0649 -0.114987 13.8708 1.48949 17.09L5.21251 14.1563Z" fill="#FBBC04"/>
<path d="M11.505 5.06954C13.1092 5.03783 14.6511 5.65629 15.8037 6.78221L19.0121 3.51546C16.9718 1.58078 14.2929 0.518291 11.505 0.550007C7.26856 0.550007 3.39038 2.99214 1.49023 6.84564L5.21266 9.79524C6.10043 7.08351 8.57686 5.06954 11.505 5.06954Z" fill="#EA4335"/>
</svg>
