<svg width="67" height="29" viewBox="0 0 67 29" fill="none" xmlns="http://www.w3.org/2000/svg">
<path fill-rule="evenodd" clip-rule="evenodd" d="M9.17837 5.82154C10.4273 5.92728 11.6763 5.18714 12.4569 4.24875C13.2245 3.28392 13.7319 1.98867 13.6018 0.666992C12.4959 0.719859 11.1299 1.40713 10.3493 2.37196C9.63372 3.20462 9.02225 4.55273 9.17837 5.82154ZM24.034 22.8442V2.23925H31.6449C35.574 2.23925 38.3191 4.98834 38.3191 9.00625C38.3191 13.0242 35.5219 15.7997 31.5408 15.7997H27.1825V22.8442H24.034ZM13.5878 6.07276C12.4875 6.00842 11.4835 6.40892 10.6725 6.73242C10.1507 6.9406 9.70875 7.11688 9.37254 7.11688C8.99524 7.11688 8.53507 6.93117 8.0184 6.72266C7.3414 6.44943 6.5674 6.13707 5.75574 6.15206C3.8953 6.17849 2.16496 7.24905 1.21523 8.95402C-0.736283 12.364 0.707834 17.4128 2.59429 20.1883C3.51801 21.5628 4.62386 23.0696 6.08099 23.0167C6.72204 22.9921 7.18317 22.7933 7.6604 22.5876C8.20982 22.3508 8.78058 22.1047 9.67177 22.1047C10.5321 22.1047 11.0779 22.3444 11.6018 22.5744C12.1 22.7931 12.5784 23.0031 13.2886 22.9903C14.7977 22.9638 15.7475 21.6157 16.6712 20.2412C17.668 18.7659 18.1061 17.3261 18.1726 17.1076L18.1803 17.0823C18.1788 17.0807 18.1664 17.075 18.1447 17.0649C17.8115 16.9099 15.2645 15.7254 15.2401 12.549C15.2155 9.88285 17.2603 8.53203 17.5821 8.31939C17.6017 8.30645 17.6149 8.29773 17.6209 8.29318C16.3199 6.33709 14.2903 6.12562 13.5878 6.07276ZM44.0701 23.0039C46.0477 23.0039 47.8821 21.9862 48.7147 20.3738H48.7798V22.8453H51.694V12.5891C51.694 9.6153 49.3522 7.69886 45.7484 7.69886C42.4049 7.69886 39.9329 9.64173 39.8419 12.3115H42.6781C42.9123 11.0427 44.0701 10.2101 45.6574 10.2101C47.5829 10.2101 48.6627 11.122 48.6627 12.8005V13.9372L44.7337 14.1751C41.0778 14.3998 39.1003 15.9197 39.1003 18.5631C39.1003 21.2329 41.1429 23.0039 44.0701 23.0039ZM44.915 20.5584C43.2367 20.5584 42.1699 19.7389 42.1699 18.4834C42.1699 17.1881 43.1977 16.4348 45.1622 16.3158L48.6619 16.0911V17.2542C48.6619 19.1838 47.0487 20.5584 44.915 20.5584ZM61.3621 23.6509C60.1001 27.2591 58.656 28.4486 55.5856 28.4486C55.3515 28.4486 54.5709 28.4222 54.3887 28.3693V25.8978C54.5839 25.9242 55.0652 25.9507 55.3124 25.9507C56.7045 25.9507 57.4851 25.3559 57.9665 23.8095L58.2527 22.8976L52.9186 7.89652H56.2101L59.918 20.0692H59.983L63.6909 7.89652H66.8914L61.3621 23.6509ZM27.1837 4.93547H30.8135C33.5456 4.93547 35.1068 6.41575 35.1068 9.01945C35.1068 11.6232 33.5456 13.1167 30.8005 13.1167H27.1837V4.93547Z" fill="white"/>
</svg>
