<svg width="61" height="38" viewBox="0 0 61 38" fill="none" xmlns="http://www.w3.org/2000/svg">
<path fill-rule="evenodd" clip-rule="evenodd" d="M30.1628 32.7511C26.9966 35.4934 22.8894 37.1489 18.4013 37.1489C8.38738 37.1489 0.269531 28.9074 0.269531 18.741C0.269531 8.57453 8.38738 0.333008 18.4013 0.333008C22.8894 0.333008 26.9966 1.98849 30.1628 4.7308C33.3291 1.98849 37.4363 0.333008 41.9244 0.333008C51.9383 0.333008 60.0561 8.57453 60.0561 18.741C60.0561 28.9074 51.9383 37.1489 41.9244 37.1489C37.4363 37.1489 33.3291 35.4934 30.1628 32.7511Z" fill="#ED0006"/>
<path fill-rule="evenodd" clip-rule="evenodd" d="M30.1621 32.7523C34.0612 29.3759 36.5336 24.3516 36.5336 18.741C36.5336 13.1304 34.0612 8.10604 30.1621 4.72968C33.3282 1.98804 37.4349 0.333008 41.9224 0.333008C51.9363 0.333008 60.0541 8.57453 60.0541 18.741C60.0541 28.9074 51.9363 37.1489 41.9224 37.1489C37.4349 37.1489 33.3282 35.4939 30.1621 32.7523Z" fill="#F9A000"/>
<path fill-rule="evenodd" clip-rule="evenodd" d="M30.1631 32.7513C34.0615 29.3749 36.5333 24.3511 36.5333 18.7411C36.5333 13.1312 34.0615 8.10731 30.1631 4.73096C26.2648 8.10731 23.793 13.1312 23.793 18.7411C23.793 24.3511 26.2648 29.3749 30.1631 32.7513Z" fill="#FF5E00"/>
</svg>
