<svg width="44" height="44" viewBox="0 0 44 44" fill="none" xmlns="http://www.w3.org/2000/svg">
<path fill-rule="evenodd" clip-rule="evenodd" d="M43.827 22.1726C43.827 34.0498 34.1303 43.6781 22.1689 43.6781C10.2074 43.6781 0.510742 34.0498 0.510742 22.1726C0.510742 10.2954 10.2074 0.666992 22.1689 0.666992C34.1303 0.666992 43.827 10.2954 43.827 22.1726ZM27.3718 14.1827C30.3845 15.2099 32.5883 16.7482 32.156 19.6108C31.842 21.7071 30.6673 22.7209 29.1066 23.0759C31.2478 24.1784 31.9776 26.271 31.2995 28.8012C30.012 32.4424 26.9517 32.7489 22.8813 31.9879L21.8929 35.902L19.5069 35.3131L20.4817 31.4514C19.8631 31.2994 19.2309 31.1368 18.5797 30.9633L17.6009 34.8438L15.2176 34.2549L16.2046 30.3327L11.3987 29.1333L12.5842 26.4306C12.5842 26.4306 14.3434 26.8918 14.3189 26.8582C14.9946 27.0236 15.2951 26.588 15.4134 26.2989L18.0916 15.6752C18.1216 15.1736 17.9462 14.5417 16.9795 14.3023C17.0163 14.2768 15.2461 13.8761 15.2461 13.8761L15.881 11.355L20.6938 12.5342L21.6727 8.65634L24.0573 9.24528L23.0988 13.0465C23.7405 13.1903 24.3849 13.3369 25.0117 13.4915L25.9633 9.71454L28.3493 10.3035L27.3718 14.1827ZM21.6616 20.6523C23.287 21.0801 26.8236 22.0112 27.4401 19.57C28.069 17.0725 24.6329 16.3181 22.9506 15.9488L22.9505 15.9488C22.7599 15.9069 22.5918 15.87 22.4547 15.8361L21.2664 20.5503C21.3796 20.578 21.5126 20.613 21.6616 20.6523ZM19.8206 28.242C21.7673 28.7512 26.0248 29.8647 26.7023 27.1748C27.3956 24.4245 23.2677 23.5084 21.2536 23.0614L21.2534 23.0613C21.0284 23.0114 20.8299 22.9673 20.6673 22.9272L19.3567 28.1227C19.4897 28.1555 19.6454 28.1962 19.8197 28.2418L19.8204 28.242L19.8206 28.242Z" fill="#F7931A"/>
</svg>
