<svg width="39" height="37" viewBox="0 0 39 37" fill="none" xmlns="http://www.w3.org/2000/svg">
<path d="M14.6673 34.8334C15.5418 34.8334 16.2507 34.1245 16.2507 33.2501C16.2507 32.3756 15.5418 31.6667 14.6673 31.6667C13.7929 31.6667 13.084 32.3756 13.084 33.2501C13.084 34.1245 13.7929 34.8334 14.6673 34.8334Z" stroke="white" stroke-width="3.16667" stroke-linecap="round" stroke-linejoin="round"/>
<path d="M32.0833 34.8334C32.9578 34.8334 33.6667 34.1245 33.6667 33.2501C33.6667 32.3756 32.9578 31.6667 32.0833 31.6667C31.2089 31.6667 30.5 32.3756 30.5 33.2501C30.5 34.1245 31.2089 34.8334 32.0833 34.8334Z" stroke="white" stroke-width="3.16667" stroke-linecap="round" stroke-linejoin="round"/>
<path d="M2 1.58325H8.33333L12.5767 22.7841C12.7215 23.513 13.118 24.1679 13.6969 24.6339C14.2759 25.0999 15.0003 25.3475 15.7433 25.3333H31.1333C31.8764 25.3475 32.6008 25.0999 33.1797 24.6339C33.7586 24.1679 34.1552 23.513 34.3 22.7841L36.8333 9.49992H9.91667" stroke="white" stroke-width="3.16667" stroke-linecap="round" stroke-linejoin="round"/>
</svg>
