<svg width="38" height="38" viewBox="0 0 38 38" fill="none" xmlns="http://www.w3.org/2000/svg">
<path d="M32.9967 7.29913C32.188 6.49005 31.2278 5.84823 30.171 5.41034C29.1142 4.97245 27.9815 4.74707 26.8375 4.74707C25.6936 4.74707 24.5609 4.97245 23.504 5.41034C22.4472 5.84823 21.4871 6.49005 20.6784 7.29913L19 8.97746L17.3217 7.29913C15.6882 5.66562 13.4727 4.74792 11.1625 4.74792C8.85239 4.74792 6.63687 5.66562 5.00336 7.29913C3.36985 8.93264 2.45215 11.1482 2.45215 13.4583C2.45215 15.7684 3.36985 17.9839 5.00336 19.6175L6.68169 21.2958L19 33.6141L31.3184 21.2958L32.9967 19.6175C33.8058 18.8088 34.4476 17.8486 34.8855 16.7918C35.3234 15.735 35.5487 14.6022 35.5487 13.4583C35.5487 12.3144 35.3234 11.1816 34.8855 10.1248C34.4476 9.068 33.8058 8.10782 32.9967 7.29913V7.29913Z" stroke="white" stroke-width="3.16667" stroke-linecap="round" stroke-linejoin="round"/>
</svg>
