<svg width="28" height="25" viewBox="0 0 28 25" fill="none" xmlns="http://www.w3.org/2000/svg">
<path d="M13.89 4.22907L13.9653 4.15428L14.0829 4.27113L14.7827 3.4466C16.053 1.94996 17.9529 1 20.0789 1C23.9076 1 27 4.08137 27 7.8684C27 10.0382 25.9871 11.9742 24.3983 13.2354C23.4298 14.0042 20.6097 16.8094 18.1004 19.3469C16.83 20.6315 15.6168 21.8707 14.7213 22.7886C14.4284 23.0888 14.1695 23.3547 13.9536 23.5767L3.48646 13.1467L3.45802 13.1184L3.42741 13.0924C1.93914 11.8302 1 9.95791 1 7.8684C1 4.08137 4.09237 1 7.92105 1C10.0316 1 11.9193 1.93615 13.1894 3.41394L13.89 4.22907Z" stroke="#5A189A" stroke-width="2"/>
</svg>
