<svg width="28" height="24" viewBox="0 0 28 24" fill="none" xmlns="http://www.w3.org/2000/svg">
<g clip-path="url(#clip0_678_1428)">
<path d="M13.7429 4.12383L13.8175 4.04917L13.9328 4.16446L14.6346 3.33211C15.8383 1.90435 17.6369 1 19.6477 1C23.2672 1 26.2013 3.93418 26.2013 7.55367C26.2013 9.62649 25.2402 11.4742 23.7353 12.6767C22.809 13.4169 20.1173 16.1125 17.7256 18.5472C16.514 19.7806 15.357 20.9703 14.503 21.8515C14.2393 22.1236 14.0045 22.3663 13.8058 22.5719L3.85985 12.5949L3.83149 12.5664L3.80095 12.5403C2.3912 11.3367 1.5 9.54981 1.5 7.55367C1.5 3.93418 4.43418 1 8.05367 1C10.0498 1 11.8367 1.8912 13.0403 3.30095L13.7429 4.12383Z" stroke="#E700FF" stroke-width="2"/>
</g>
<defs>
<clipPath id="clip0_678_1428">
<rect width="28" height="24" fill="white"/>
</clipPath>
</defs>
</svg>
