<svg width="32" height="32" viewBox="0 0 32 32" fill="none" xmlns="http://www.w3.org/2000/svg">
<path d="M15.3919 1.3775C15.0514 0.545406 14.2383 0 13.3418 0C12.4452 0 11.6321 0.545406 11.2916 1.3775L2.95184 21.5156L0.171925 28.2283C-0.30066 29.368 0.234473 30.6756 1.36729 31.1511C2.5001 31.6266 3.79971 31.0881 4.2723 29.9484L6.48233 24.6132H20.2012L22.4112 29.9484C22.8838 31.0881 24.1834 31.6266 25.3162 31.1511C26.449 30.6756 26.9842 29.368 26.5116 28.2283L23.7317 21.5156L15.3919 1.3775V1.3775ZM18.3456 20.1381H8.33792L13.3418 8.05523L18.3456 20.1381Z" fill="white"/>
<path d="M27.3462 5.00004C27.3462 5.00004 26.968 5 26.5 5C26.032 5 25.6538 5.00006 25.6538 5.00006H21.8462C21.3781 5.00006 21 5.44692 21 6.00003C21 6.55314 21.3781 7 21.8462 7H25.6538C25.6538 7 26.032 7 26.5 7C26.968 7 27.3462 7 27.3462 7H31.1538C31.6219 7 32 6.55314 32 6.00003C32 5.44692 31.6219 5.00006 31.1538 5.00006L27.3462 5.00004Z" fill="white"/>
</svg>
