<svg width="34" height="32" viewBox="0 0 34 32" fill="none" xmlns="http://www.w3.org/2000/svg">
<path d="M15.3919 1.3775C15.0514 0.545406 14.2383 0 13.3418 0C12.4452 0 11.6321 0.545406 11.2916 1.3775L2.95184 21.5156L0.171925 28.2283C-0.30066 29.368 0.234473 30.6756 1.36729 31.1511C2.5001 31.6266 3.79971 31.0881 4.2723 29.9484L6.48233 24.6132H20.2012L22.4112 29.9484C22.8838 31.0881 24.1834 31.6266 25.3162 31.1511C26.449 30.6756 26.9842 29.368 26.5116 28.2283L23.7317 21.5156L15.3919 1.3775ZM18.3456 20.1381H8.33792L13.3418 8.05523L18.3456 20.1381Z" fill="white"/>
<path d="M27.6652 0.981666C27.6652 0.438682 27.2266 0 26.6836 0C26.1406 0 25.7019 0.438682 25.7019 0.981666V5.39916H21.2844C20.7414 5.39916 20.3027 5.83784 20.3027 6.38083C20.3027 6.92381 20.7414 7.36249 21.2844 7.36249H25.7019V11.78C25.7019 12.323 26.1406 12.7617 26.6836 12.7617C27.2266 12.7617 27.6652 12.323 27.6652 11.78V7.36249H32.0827C32.6257 7.36249 33.0644 6.92381 33.0644 6.38083C33.0644 5.83784 32.6257 5.39916 32.0827 5.39916H27.6652V0.981666Z" fill="white"/>
</svg>
