<svg width="28" height="31" viewBox="0 0 28 31" fill="none" xmlns="http://www.w3.org/2000/svg">
<path d="M12.3879 0.0947134C9.77852 0.555964 7.83468 2.0122 7.18893 3.98899L7.07691 4.33163L4.23033 4.3514C1.48918 4.37117 1.37057 4.37776 1.08065 4.50955C0.698466 4.68746 0.316286 5.06964 0.138375 5.45182C0.0131786 5.72857 0 5.87353 0 6.941C0 8.1073 0 8.13366 0.1845 8.50266C0.494198 9.12865 1.02793 9.47788 1.76593 9.53059C2.12176 9.55695 2.20742 9.58331 2.20742 9.67556C2.20742 10.1236 4.20397 27.783 4.28964 28.0663C4.67182 29.3644 5.71951 30.3989 6.99125 30.7284C7.56452 30.8799 19.9722 30.8799 20.5586 30.7284C21.916 30.3791 23.0033 29.259 23.3261 27.862C23.392 27.5787 23.6095 24.4751 23.9521 18.8347C24.242 14.1036 24.4924 10.0841 24.5188 9.89959L24.5517 9.55695L25.158 9.53059C26.0541 9.49106 26.5615 9.18795 26.8975 8.50266C27.082 8.13366 27.082 8.1073 27.082 6.941C27.082 5.82741 27.0754 5.73516 26.9239 5.43864C26.7328 5.03669 26.377 4.69405 25.9948 4.50955C25.7115 4.37776 25.5797 4.37117 23.1812 4.3514L20.6575 4.33163L20.585 4.05488C20.473 3.6134 20.0249 2.82268 19.6493 2.36802C18.7004 1.23466 17.0663 0.371464 15.3201 0.0881241C14.5492 -0.0304834 13.1061 -0.0304834 12.3879 0.0947134ZM14.6941 1.77499C16.1636 1.9529 17.4221 2.53275 18.2326 3.40254C18.4896 3.67929 18.8125 4.18008 18.8125 4.30528C18.8125 4.32504 16.5919 4.33822 13.8705 4.33822C11.1557 4.33822 8.9285 4.32504 8.9285 4.30528C8.9285 4.14054 9.29092 3.63317 9.67968 3.25099C10.5956 2.34167 12.177 1.74863 13.7716 1.70909C13.9561 1.70909 14.3713 1.73545 14.6941 1.77499ZM21.9292 6.16346L25.3359 6.203V6.98712V7.76466H13.541H1.74616V7.1848C1.74616 6.86852 1.76593 6.49951 1.7857 6.36114L1.83183 6.11733H10.1739C14.76 6.11733 20.0512 6.1371 21.9292 6.16346ZM22.766 9.68874C22.766 9.7744 22.5156 13.807 22.2125 18.6502L21.659 27.4535L21.4811 27.8554C21.2703 28.3167 20.8683 28.7252 20.4071 28.9361L20.0974 29.0811H13.7716H7.44591L7.07032 28.8965C6.60907 28.6725 6.20712 28.231 6.04239 27.7698C5.96991 27.5853 5.88425 27.1372 5.84471 26.7748C5.79859 26.4124 5.36369 22.4654 4.87608 18.011C4.38848 13.5501 3.97335 9.82711 3.95358 9.72168L3.92722 9.54377H13.3433H22.766V9.68874Z" fill="white"/>
<path d="M12.9674 12.0149C12.8488 12.0676 12.6907 12.206 12.6182 12.3246C12.4864 12.5421 12.4864 12.6409 12.4864 19.3488C12.4864 26.7025 12.4732 26.3928 12.829 26.6234C13.2442 26.8936 13.8174 26.7815 14.0678 26.3796C14.1996 26.1687 14.1996 26.0699 14.1996 19.3554C14.1996 12.6409 14.1996 12.5421 14.0678 12.3246C13.9294 12.1006 13.5934 11.9161 13.3298 11.9161C13.2442 11.9227 13.0794 11.9622 12.9674 12.0149Z" fill="white"/>
<path d="M7.51789 12.7724C7.18842 12.9832 7.12912 13.1809 7.1423 13.9914C7.14889 14.3867 7.24114 17.1279 7.34656 20.0667C7.55742 25.9246 7.53106 25.6874 7.95937 25.9575C8.11751 26.0564 8.2493 26.0827 8.4931 26.063C8.76985 26.0366 8.85551 25.9971 9.04001 25.7928C9.25087 25.5622 9.25746 25.5424 9.25746 24.9823C9.25746 24.666 9.16521 21.9051 9.05319 18.8411C8.89505 14.3274 8.83575 13.2402 8.75667 13.0886C8.53923 12.6735 7.90665 12.5088 7.51789 12.7724Z" fill="white"/>
<path d="M18.2393 12.7725C17.8044 13.0361 17.8374 12.7395 17.6002 19.2827C17.475 22.7289 17.4091 25.3449 17.442 25.4635C17.6397 26.1949 18.7533 26.2871 19.0432 25.5953C19.1157 25.4305 19.1816 24.027 19.3397 19.7835C19.5967 12.6012 19.6033 13.214 19.2804 12.8977C19.063 12.6802 18.9839 12.6407 18.7401 12.6407C18.5688 12.6407 18.3645 12.6934 18.2393 12.7725Z" fill="white"/>
</svg>
