<svg width="25" height="20" viewBox="0 0 25 20" fill="none" xmlns="http://www.w3.org/2000/svg">
<path d="M22.4303 4.98436C22.4461 5.2031 22.4461 5.42188 22.4461 5.64062C22.4461 12.3125 17.2907 20 7.86805 20C4.96511 20 2.26842 19.1718 0 17.7344C0.412453 17.7812 0.808988 17.7969 1.23731 17.7969C3.63258 17.7969 5.83757 17 7.59837 15.6406C5.34582 15.5938 3.45812 14.1406 2.80773 12.1406C3.12501 12.1875 3.44225 12.2187 3.77541 12.2187C4.23542 12.2187 4.69548 12.1562 5.12375 12.0469C2.77604 11.5781 1.01519 9.54687 1.01519 7.09374V7.03126C1.69727 7.40627 2.49049 7.64064 3.33117 7.67185C1.95108 6.76558 1.04693 5.21873 1.04693 3.46871C1.04693 2.53123 1.30069 1.67186 1.74488 0.921852C4.26711 3.98435 8.05838 5.98432 12.3096 6.2031C12.2303 5.8281 12.1827 5.43751 12.1827 5.04688C12.1827 2.2656 14.467 0 17.3065 0C18.7817 0 20.1142 0.609373 21.0501 1.59375C22.2081 1.37501 23.3185 0.953114 24.302 0.375003C23.9213 1.5469 23.1123 2.53128 22.0495 3.15624C23.0806 3.04692 24.08 2.7656 25 2.37502C24.3021 3.37498 23.4296 4.26557 22.4303 4.98436Z" fill="#E0AAFF"/>
</svg>
