<svg width="247" height="43" viewBox="0 0 247 43" fill="none" xmlns="http://www.w3.org/2000/svg">
<path d="M1.14489 2.22656C0.29014 3.63672 -0.118651 4.71289 0.03 5.12109C0.141488 5.45508 4.11791 12.4688 8.80043 20.6699L17.3479 35.625H20.1351H22.8851L23.7399 34.2148C24.223 33.4727 28.2366 26.5332 32.6961 18.8516L40.7605 4.86133L39.4226 2.41211L38.0476 0H20.2837H2.48275L1.14489 2.22656ZM37.007 1.00195C37.007 1.26172 23.9257 23.9355 23.1453 25.0117C22.6622 25.6797 22.5507 25.6426 21.6216 24.0098C20.7669 22.5625 20.6554 22.1914 21.0642 21.4492C21.2871 20.9668 23.4798 17.1445 25.8953 12.9141C28.3481 8.68359 30.3177 5.04688 30.3177 4.82422C30.3177 4.56445 25.4494 4.45312 15.4526 4.45312H0.587443L1.628 2.59766L2.6314 0.742188H19.8378C29.2772 0.742188 37.007 0.853516 37.007 1.00195ZM39.274 3.45117C39.8686 4.56445 39.9057 4.97266 39.5713 5.67773C38.3449 8.01562 23.4426 33.6582 23.1081 34.0664C22.7737 34.4004 21.0642 31.7656 15.6384 22.4141C11.7363 15.7715 8.54029 10.0938 8.46596 9.79688C8.35448 9.38867 8.83759 9.27734 10.3613 9.27734H12.4052L17.385 17.8496C20.0979 22.5996 22.4764 26.459 22.6993 26.4961C22.9966 26.5332 29.5745 15.4746 36.6726 3.00586C37.8989 0.816406 37.8618 0.816406 39.274 3.45117ZM28.7197 6.75391L27.7906 8.34961L23.7399 8.57227C21.5473 8.7207 16.9391 8.83203 13.5201 8.86914C10.064 8.86914 7.27675 8.98047 7.27675 9.0918C7.27675 9.16602 10.6214 14.9551 14.6722 21.9688L22.1047 34.6973L20.0236 34.8086C18.8716 34.8828 17.831 34.7715 17.6452 34.623C17.1992 34.1777 0.959071 5.82617 0.959071 5.49219C0.959071 5.30664 7.4254 5.19531 15.3039 5.19531H29.6488L28.7197 6.75391ZM26.9731 9.53711C26.9731 9.98242 20.4696 21.1523 20.2466 21.1523C20.0236 21.1523 15.081 12.8398 13.6316 10.0938L13.1856 9.27734H20.0979C23.8885 9.27734 26.9731 9.38867 26.9731 9.53711Z" fill="white"/>
<path d="M72.8811 4.37993C70.8386 5.75027 70.1578 7.75023 71.1412 9.56501C71.8598 11.0094 72.9946 11.7131 75.7557 12.4909C78.3278 13.1946 78.9329 13.5649 78.9329 14.5279C78.9329 16.0464 76.6257 16.3797 74.0536 15.2316L72.3894 14.4538L71.2925 15.4908C70.7251 16.0464 70.2334 16.6019 70.2334 16.713C70.2334 16.8241 70.9521 17.3426 71.8598 17.8611C73.1837 18.6019 73.9402 18.75 76.55 18.75C79.576 18.75 79.7273 18.713 80.8998 17.5278C81.9589 16.4908 82.148 16.0834 82.148 14.4908C82.148 12.0464 80.8242 10.6761 77.42 9.63908C74.1293 8.67614 73.7132 8.37985 74.2428 7.56505C74.7723 6.71322 76.4366 6.52803 78.3278 7.08358C79.7273 7.49098 79.8407 7.45394 80.6729 6.45396C81.1646 5.89842 81.5428 5.30584 81.5806 5.19473C81.5806 5.04658 80.8998 4.67622 80.0677 4.3429C77.9873 3.5281 74.0915 3.56513 72.8811 4.37993Z" fill="white"/>
<path d="M90.58 4.66736C88.433 5.62573 86.5451 7.61621 85.4345 10.0121C84.361 12.4449 84.3981 16.9051 85.5456 19.5222C86.5081 21.697 88.9142 24.0929 91.0242 24.9775C93.1342 25.8991 97.3542 25.8253 99.3902 24.8301C103.277 22.9502 105.35 19.4116 105.35 14.6566C105.35 9.97528 103.388 6.62097 99.5753 4.74108C96.984 3.45096 93.2453 3.4141 90.58 4.66736ZM97.0581 7.46876C99.6493 8.16912 101.87 11.4497 101.87 14.546C101.87 18.1583 100.39 20.628 97.6133 21.697C92.9491 23.4663 88.1738 20.1119 88.1738 15.062C88.1738 9.42238 92.0977 6.10492 97.0581 7.46876Z" fill="white"/>
<path d="M55.4971 15.9149V27.7301L58.2762 27.953C60.3513 28.1016 61.7965 28.5103 64.0939 29.5135C71.0973 32.6345 73.4688 32.8946 77.5079 30.9625C80.3241 29.6249 80.4352 29.3649 79.2124 27.9158L78.1749 26.6897L76.285 27.6186C73.3947 29.1048 71.4308 28.9562 66.9842 26.9127C64.9832 25.9838 62.3893 25.0178 61.2777 24.7948L59.2026 24.349V20.3363V16.3236H62.7228H66.2431V14.4658V12.6081H62.7228H59.2026V10.0073V7.40642H64.0198H68.8369V5.73446V4.0625H62.167H55.4971V15.9149Z" fill="white"/>
<path d="M107.545 5.74013V7.41776H110.695H113.844V16.3651V25.3125H115.697H117.55V16.3651V7.41776H120.699H123.849V5.74013V4.0625H115.697H107.545V5.74013Z" fill="white"/>
<path d="M126.357 14.6875V25.3125H133.099H139.84V23.6349V21.9572H134.971H130.103V19.1612V16.3651H133.66H137.218V14.5011V12.6371H133.66H130.103V10.0274V7.41776H134.971H139.84V5.74013V4.0625H133.099H126.357V14.6875Z" fill="white"/>
<path d="M143.602 14.5855V25.1454H145.261H146.884L146.995 22.2654L147.105 19.4224L148.912 19.3116C151.715 19.127 152.305 19.4224 153.706 21.6008C155.07 23.7424 157.357 25.367 159.274 25.5885C160.344 25.6993 160.381 25.6623 160.491 23.927C160.602 22.4131 160.528 22.1916 159.864 22.1916C158.979 22.1916 156.656 20.2347 156.324 19.2008C156.14 18.6839 156.435 18.2039 157.283 17.5024C160.934 14.4009 160.565 8.19785 156.582 5.39172C154.997 4.28404 154.923 4.28404 149.281 4.17327L143.602 4.0625V14.5855ZM154.517 8.34555C155.992 9.30554 156.693 11.2994 156.14 13.0717C155.55 15.0655 153.669 15.8778 149.797 15.9147H146.921V11.9271C146.921 9.71169 147.031 7.7917 147.216 7.64401C147.695 7.09017 153.485 7.68094 154.517 8.34555Z" fill="white"/>
<path d="M166.163 13.6444C164.466 18.9182 162.954 23.5977 162.807 24.0063C162.585 24.7119 162.77 24.8976 164.208 25.3804L165.868 25.9375L166.384 24.4148L166.9 22.8549L171.51 22.7435L176.12 22.6321L176.599 24.3034L177.042 25.9375L178.664 25.3804C179.549 25.0833 180.287 24.7119 180.287 24.6005C180.287 24.4519 178.812 19.8095 177.042 14.3129L173.796 4.28534L171.51 4.17392L169.26 4.0625L166.163 13.6444ZM174.755 19.0296C174.755 19.2153 173.243 19.3267 171.399 19.3267C168.855 19.3267 168.08 19.2153 168.228 18.8439C168.301 18.6211 168.928 16.6898 169.555 14.5729C171.584 7.96212 171.289 8.0364 173.133 13.7558C174.018 16.5041 174.755 18.881 174.755 19.0296Z" fill="white"/>
<path d="M90.2606 36.9575C90.6806 36.9575 91.0506 36.9075 91.3706 36.8075C91.6956 36.7025 91.9656 36.5575 92.1806 36.3725C92.4006 36.1825 92.5656 35.9575 92.6756 35.6975C92.7856 35.4375 92.8406 35.15 92.8406 34.835C92.8406 34.195 92.6306 33.7125 92.2106 33.3875C91.7906 33.0625 91.1606 32.9 90.3206 32.9H88.7306V36.9575H90.2606ZM95.2256 42.5H93.9356C93.6706 42.5 93.4756 42.3975 93.3506 42.1925L90.5606 38.3525C90.4756 38.2325 90.3831 38.1475 90.2831 38.0975C90.1881 38.0425 90.0381 38.015 89.8331 38.015H88.7306V42.5H87.2831V31.7525H90.3206C91.0006 31.7525 91.5881 31.8225 92.0831 31.9625C92.5781 32.0975 92.9856 32.295 93.3056 32.555C93.6306 32.815 93.8706 33.13 94.0256 33.5C94.1806 33.865 94.2581 34.275 94.2581 34.73C94.2581 35.11 94.1981 35.465 94.0781 35.795C93.9581 36.125 93.7831 36.4225 93.5531 36.6875C93.3281 36.9475 93.0506 37.17 92.7206 37.355C92.3956 37.54 92.0256 37.68 91.6106 37.775C91.7956 37.88 91.9556 38.0325 92.0906 38.2325L95.2256 42.5ZM100.974 37.8725C100.974 37.5625 100.929 37.28 100.839 37.025C100.754 36.765 100.627 36.5425 100.457 36.3575C100.292 36.1675 100.089 36.0225 99.849 35.9225C99.609 35.8175 99.3365 35.765 99.0315 35.765C98.3915 35.765 97.884 35.9525 97.509 36.3275C97.139 36.6975 96.909 37.2125 96.819 37.8725H100.974ZM102.054 41.435C101.889 41.635 101.692 41.81 101.462 41.96C101.232 42.105 100.984 42.225 100.719 42.32C100.459 42.415 100.189 42.485 99.909 42.53C99.629 42.58 99.3515 42.605 99.0765 42.605C98.5515 42.605 98.0665 42.5175 97.6215 42.3425C97.1815 42.1625 96.799 41.9025 96.474 41.5625C96.154 41.2175 95.904 40.7925 95.724 40.2875C95.544 39.7825 95.454 39.2025 95.454 38.5475C95.454 38.0175 95.534 37.5225 95.694 37.0625C95.859 36.6025 96.094 36.205 96.399 35.87C96.704 35.53 97.0765 35.265 97.5165 35.075C97.9565 34.88 98.4515 34.7825 99.0015 34.7825C99.4565 34.7825 99.8765 34.86 100.262 35.015C100.652 35.165 100.987 35.385 101.267 35.675C101.552 35.96 101.774 36.315 101.934 36.74C102.094 37.16 102.174 37.64 102.174 38.18C102.174 38.39 102.152 38.53 102.107 38.6C102.062 38.67 101.977 38.705 101.852 38.705H96.774C96.789 39.185 96.854 39.6025 96.969 39.9575C97.089 40.3125 97.254 40.61 97.464 40.85C97.674 41.085 97.924 41.2625 98.214 41.3825C98.504 41.4975 98.829 41.555 99.189 41.555C99.524 41.555 99.8115 41.5175 100.052 41.4425C100.297 41.3625 100.507 41.2775 100.682 41.1875C100.857 41.0975 101.002 41.015 101.117 40.94C101.237 40.86 101.339 40.82 101.424 40.82C101.534 40.82 101.619 40.8625 101.679 40.9475L102.054 41.435ZM110.163 34.9025L107.065 42.5H105.865L102.768 34.9025H103.855C103.965 34.9025 104.055 34.93 104.125 34.985C104.195 35.04 104.243 35.105 104.268 35.18L106.195 40.07C106.255 40.255 106.308 40.435 106.353 40.61C106.398 40.785 106.44 40.96 106.48 41.135C106.52 40.96 106.563 40.785 106.608 40.61C106.653 40.435 106.708 40.255 106.773 40.07L108.723 35.18C108.753 35.1 108.803 35.035 108.873 34.985C108.943 34.93 109.025 34.9025 109.12 34.9025H110.163ZM116.267 37.8725C116.267 37.5625 116.222 37.28 116.132 37.025C116.047 36.765 115.92 36.5425 115.75 36.3575C115.585 36.1675 115.382 36.0225 115.142 35.9225C114.902 35.8175 114.63 35.765 114.325 35.765C113.685 35.765 113.177 35.9525 112.802 36.3275C112.432 36.6975 112.202 37.2125 112.112 37.8725H116.267ZM117.347 41.435C117.182 41.635 116.985 41.81 116.755 41.96C116.525 42.105 116.277 42.225 116.012 42.32C115.752 42.415 115.482 42.485 115.202 42.53C114.922 42.58 114.645 42.605 114.37 42.605C113.845 42.605 113.36 42.5175 112.915 42.3425C112.475 42.1625 112.092 41.9025 111.767 41.5625C111.447 41.2175 111.197 40.7925 111.017 40.2875C110.837 39.7825 110.747 39.2025 110.747 38.5475C110.747 38.0175 110.827 37.5225 110.987 37.0625C111.152 36.6025 111.387 36.205 111.692 35.87C111.997 35.53 112.37 35.265 112.81 35.075C113.25 34.88 113.745 34.7825 114.295 34.7825C114.75 34.7825 115.17 34.86 115.555 35.015C115.945 35.165 116.28 35.385 116.56 35.675C116.845 35.96 117.067 36.315 117.227 36.74C117.387 37.16 117.467 37.64 117.467 38.18C117.467 38.39 117.445 38.53 117.4 38.6C117.355 38.67 117.27 38.705 117.145 38.705H112.067C112.082 39.185 112.147 39.6025 112.262 39.9575C112.382 40.3125 112.547 40.61 112.757 40.85C112.967 41.085 113.217 41.2625 113.507 41.3825C113.797 41.4975 114.122 41.555 114.482 41.555C114.817 41.555 115.105 41.5175 115.345 41.4425C115.59 41.3625 115.8 41.2775 115.975 41.1875C116.15 41.0975 116.295 41.015 116.41 40.94C116.53 40.86 116.632 40.82 116.717 40.82C116.827 40.82 116.912 40.8625 116.972 40.9475L117.347 41.435ZM120.487 31.4525V42.5H119.152V31.4525H120.487ZM126.769 39.08C126.154 39.1 125.629 39.15 125.194 39.23C124.764 39.305 124.412 39.405 124.137 39.53C123.867 39.655 123.669 39.8025 123.544 39.9725C123.424 40.1425 123.364 40.3325 123.364 40.5425C123.364 40.7425 123.397 40.915 123.462 41.06C123.527 41.205 123.614 41.325 123.724 41.42C123.839 41.51 123.972 41.5775 124.122 41.6225C124.277 41.6625 124.442 41.6825 124.617 41.6825C124.852 41.6825 125.067 41.66 125.262 41.615C125.457 41.565 125.639 41.495 125.809 41.405C125.984 41.315 126.149 41.2075 126.304 41.0825C126.464 40.9575 126.619 40.815 126.769 40.655V39.08ZM122.457 35.975C122.877 35.57 123.329 35.2675 123.814 35.0675C124.299 34.8675 124.837 34.7675 125.427 34.7675C125.852 34.7675 126.229 34.8375 126.559 34.9775C126.889 35.1175 127.167 35.3125 127.392 35.5625C127.617 35.8125 127.787 36.115 127.902 36.47C128.017 36.825 128.074 37.215 128.074 37.64V42.5H127.482C127.352 42.5 127.252 42.48 127.182 42.44C127.112 42.395 127.057 42.31 127.017 42.185L126.867 41.465C126.667 41.65 126.472 41.815 126.282 41.96C126.092 42.1 125.892 42.22 125.682 42.32C125.472 42.415 125.247 42.4875 125.007 42.5375C124.772 42.5925 124.509 42.62 124.219 42.62C123.924 42.62 123.647 42.58 123.387 42.5C123.127 42.415 122.899 42.29 122.704 42.125C122.514 41.96 122.362 41.7525 122.247 41.5025C122.137 41.2475 122.082 40.9475 122.082 40.6025C122.082 40.3025 122.164 40.015 122.329 39.74C122.494 39.46 122.762 39.2125 123.132 38.9975C123.502 38.7825 123.984 38.6075 124.579 38.4725C125.174 38.3325 125.904 38.2525 126.769 38.2325V37.64C126.769 37.05 126.642 36.605 126.387 36.305C126.132 36 125.759 35.8475 125.269 35.8475C124.939 35.8475 124.662 35.89 124.437 35.975C124.217 36.055 124.024 36.1475 123.859 36.2525C123.699 36.3525 123.559 36.445 123.439 36.53C123.324 36.61 123.209 36.65 123.094 36.65C123.004 36.65 122.927 36.6275 122.862 36.5825C122.797 36.5325 122.742 36.4725 122.697 36.4025L122.457 35.975ZM131.368 36.005C131.533 35.82 131.708 35.6525 131.893 35.5025C132.078 35.3525 132.273 35.225 132.478 35.12C132.688 35.01 132.908 34.9275 133.138 34.8725C133.373 34.8125 133.625 34.7825 133.895 34.7825C134.31 34.7825 134.675 34.8525 134.99 34.9925C135.31 35.1275 135.575 35.3225 135.785 35.5775C136 35.8275 136.163 36.13 136.273 36.485C136.383 36.84 136.438 37.2325 136.438 37.6625V42.5H135.095V37.6625C135.095 37.0875 134.963 36.6425 134.698 36.3275C134.438 36.0075 134.04 35.8475 133.505 35.8475C133.11 35.8475 132.74 35.9425 132.395 36.1325C132.055 36.3225 131.74 36.58 131.45 36.905V42.5H130.108V34.9025H130.91C131.1 34.9025 131.218 34.995 131.263 35.18L131.368 36.005ZM143.422 36.71C143.172 36.375 142.902 36.1425 142.612 36.0125C142.322 35.8775 141.997 35.81 141.637 35.81C140.932 35.81 140.39 36.0625 140.01 36.5675C139.63 37.0725 139.44 37.7925 139.44 38.7275C139.44 39.2225 139.482 39.6475 139.567 40.0025C139.652 40.3525 139.777 40.6425 139.942 40.8725C140.107 41.0975 140.31 41.2625 140.55 41.3675C140.79 41.4725 141.062 41.525 141.367 41.525C141.807 41.525 142.19 41.425 142.515 41.225C142.845 41.025 143.147 40.7425 143.422 40.3775V36.71ZM144.757 31.4525V42.5H143.962C143.772 42.5 143.652 42.4075 143.602 42.2225L143.482 41.3C143.157 41.69 142.787 42.005 142.372 42.245C141.957 42.485 141.477 42.605 140.932 42.605C140.497 42.605 140.102 42.5225 139.747 42.3575C139.392 42.1875 139.09 41.94 138.84 41.615C138.59 41.29 138.397 40.885 138.262 40.4C138.127 39.915 138.06 39.3575 138.06 38.7275C138.06 38.1675 138.135 37.6475 138.285 37.1675C138.435 36.6825 138.65 36.2625 138.93 35.9075C139.21 35.5525 139.552 35.275 139.957 35.075C140.367 34.87 140.827 34.7675 141.337 34.7675C141.802 34.7675 142.2 34.8475 142.53 35.0075C142.865 35.1625 143.162 35.38 143.422 35.66V31.4525H144.757ZM150.068 34.7825C150.623 34.7825 151.123 34.875 151.568 35.06C152.013 35.245 152.393 35.5075 152.708 35.8475C153.023 36.1875 153.263 36.6 153.428 37.085C153.598 37.565 153.683 38.1025 153.683 38.6975C153.683 39.2975 153.598 39.8375 153.428 40.3175C153.263 40.7975 153.023 41.2075 152.708 41.5475C152.393 41.8875 152.013 42.15 151.568 42.335C151.123 42.515 150.623 42.605 150.068 42.605C149.508 42.605 149.003 42.515 148.553 42.335C148.108 42.15 147.728 41.8875 147.413 41.5475C147.098 41.2075 146.856 40.7975 146.686 40.3175C146.521 39.8375 146.438 39.2975 146.438 38.6975C146.438 38.1025 146.521 37.565 146.686 37.085C146.856 36.6 147.098 36.1875 147.413 35.8475C147.728 35.5075 148.108 35.245 148.553 35.06C149.003 34.875 149.508 34.7825 150.068 34.7825ZM150.068 41.5625C150.818 41.5625 151.378 41.3125 151.748 40.8125C152.118 40.3075 152.303 39.605 152.303 38.705C152.303 37.8 152.118 37.095 151.748 36.59C151.378 36.085 150.818 35.8325 150.068 35.8325C149.688 35.8325 149.356 35.8975 149.071 36.0275C148.791 36.1575 148.556 36.345 148.366 36.59C148.181 36.835 148.041 37.1375 147.946 37.4975C147.856 37.8525 147.811 38.255 147.811 38.705C147.811 39.605 147.996 40.3075 148.366 40.8125C148.741 41.3125 149.308 41.5625 150.068 41.5625ZM163.639 36.155C163.579 36.265 163.487 36.32 163.362 36.32C163.287 36.32 163.202 36.2925 163.107 36.2375C163.012 36.1825 162.894 36.1225 162.754 36.0575C162.619 35.9875 162.457 35.925 162.267 35.87C162.077 35.81 161.852 35.78 161.592 35.78C161.367 35.78 161.164 35.81 160.984 35.87C160.804 35.925 160.649 36.0025 160.519 36.1025C160.394 36.2025 160.297 36.32 160.227 36.455C160.162 36.585 160.129 36.7275 160.129 36.8825C160.129 37.0775 160.184 37.24 160.294 37.37C160.409 37.5 160.559 37.6125 160.744 37.7075C160.929 37.8025 161.139 37.8875 161.374 37.9625C161.609 38.0325 161.849 38.11 162.094 38.195C162.344 38.275 162.587 38.365 162.822 38.465C163.057 38.565 163.267 38.69 163.452 38.84C163.637 38.99 163.784 39.175 163.894 39.395C164.009 39.61 164.067 39.87 164.067 40.175C164.067 40.525 164.004 40.85 163.879 41.15C163.754 41.445 163.569 41.7025 163.324 41.9225C163.079 42.1375 162.779 42.3075 162.424 42.4325C162.069 42.5575 161.659 42.62 161.194 42.62C160.664 42.62 160.184 42.535 159.754 42.365C159.324 42.19 158.959 41.9675 158.659 41.6975L158.974 41.1875C159.014 41.1225 159.062 41.0725 159.117 41.0375C159.172 41.0025 159.242 40.985 159.327 40.985C159.417 40.985 159.512 41.02 159.612 41.09C159.712 41.16 159.832 41.2375 159.972 41.3225C160.117 41.4075 160.292 41.485 160.497 41.555C160.702 41.625 160.957 41.66 161.262 41.66C161.522 41.66 161.749 41.6275 161.944 41.5625C162.139 41.4925 162.302 41.4 162.432 41.285C162.562 41.17 162.657 41.0375 162.717 40.8875C162.782 40.7375 162.814 40.5775 162.814 40.4075C162.814 40.1975 162.757 40.025 162.642 39.89C162.532 39.75 162.384 39.6325 162.199 39.5375C162.014 39.4375 161.802 39.3525 161.562 39.2825C161.327 39.2075 161.084 39.13 160.834 39.05C160.589 38.97 160.347 38.88 160.107 38.78C159.872 38.675 159.662 38.545 159.477 38.39C159.292 38.235 159.142 38.045 159.027 37.82C158.917 37.59 158.862 37.3125 158.862 36.9875C158.862 36.6975 158.922 36.42 159.042 36.155C159.162 35.885 159.337 35.65 159.567 35.45C159.797 35.245 160.079 35.0825 160.414 34.9625C160.749 34.8425 161.132 34.7825 161.562 34.7825C162.062 34.7825 162.509 34.8625 162.904 35.0225C163.304 35.1775 163.649 35.3925 163.939 35.6675L163.639 36.155ZM171.951 34.9025V42.5H171.156C170.966 42.5 170.846 42.4075 170.796 42.2225L170.691 41.405C170.361 41.77 169.991 42.065 169.581 42.29C169.171 42.51 168.701 42.62 168.171 42.62C167.756 42.62 167.388 42.5525 167.068 42.4175C166.753 42.2775 166.488 42.0825 166.273 41.8325C166.058 41.5825 165.896 41.28 165.786 40.925C165.681 40.57 165.628 40.1775 165.628 39.7475V34.9025H166.963V39.7475C166.963 40.3225 167.093 40.7675 167.353 41.0825C167.618 41.3975 168.021 41.555 168.561 41.555C168.956 41.555 169.323 41.4625 169.663 41.2775C170.008 41.0875 170.326 40.8275 170.616 40.4975V34.9025H171.951ZM178.185 39.08C177.57 39.1 177.045 39.15 176.61 39.23C176.18 39.305 175.828 39.405 175.553 39.53C175.283 39.655 175.085 39.8025 174.96 39.9725C174.84 40.1425 174.78 40.3325 174.78 40.5425C174.78 40.7425 174.813 40.915 174.878 41.06C174.943 41.205 175.03 41.325 175.14 41.42C175.255 41.51 175.388 41.5775 175.538 41.6225C175.693 41.6625 175.858 41.6825 176.033 41.6825C176.268 41.6825 176.483 41.66 176.678 41.615C176.873 41.565 177.055 41.495 177.225 41.405C177.4 41.315 177.565 41.2075 177.72 41.0825C177.88 40.9575 178.035 40.815 178.185 40.655V39.08ZM173.873 35.975C174.293 35.57 174.745 35.2675 175.23 35.0675C175.715 34.8675 176.253 34.7675 176.843 34.7675C177.268 34.7675 177.645 34.8375 177.975 34.9775C178.305 35.1175 178.583 35.3125 178.808 35.5625C179.033 35.8125 179.203 36.115 179.318 36.47C179.433 36.825 179.49 37.215 179.49 37.64V42.5H178.898C178.768 42.5 178.668 42.48 178.598 42.44C178.528 42.395 178.473 42.31 178.433 42.185L178.283 41.465C178.083 41.65 177.888 41.815 177.698 41.96C177.508 42.1 177.308 42.22 177.098 42.32C176.888 42.415 176.663 42.4875 176.423 42.5375C176.188 42.5925 175.925 42.62 175.635 42.62C175.34 42.62 175.063 42.58 174.803 42.5C174.543 42.415 174.315 42.29 174.12 42.125C173.93 41.96 173.778 41.7525 173.663 41.5025C173.553 41.2475 173.498 40.9475 173.498 40.6025C173.498 40.3025 173.58 40.015 173.745 39.74C173.91 39.46 174.178 39.2125 174.548 38.9975C174.918 38.7825 175.4 38.6075 175.995 38.4725C176.59 38.3325 177.32 38.2525 178.185 38.2325V37.64C178.185 37.05 178.058 36.605 177.803 36.305C177.548 36 177.175 35.8475 176.685 35.8475C176.355 35.8475 176.078 35.89 175.853 35.975C175.633 36.055 175.44 36.1475 175.275 36.2525C175.115 36.3525 174.975 36.445 174.855 36.53C174.74 36.61 174.625 36.65 174.51 36.65C174.42 36.65 174.343 36.6275 174.278 36.5825C174.213 36.5325 174.158 36.4725 174.113 36.4025L173.873 35.975ZM186.772 34.9025V42.5H185.437V34.9025H186.772ZM187.057 32.5175C187.057 32.6475 187.029 32.77 186.974 32.885C186.924 32.995 186.854 33.095 186.764 33.185C186.679 33.27 186.577 33.3375 186.457 33.3875C186.342 33.4375 186.219 33.4625 186.089 33.4625C185.959 33.4625 185.837 33.4375 185.722 33.3875C185.612 33.3375 185.514 33.27 185.429 33.185C185.344 33.095 185.277 32.995 185.227 32.885C185.177 32.77 185.152 32.6475 185.152 32.5175C185.152 32.3875 185.177 32.265 185.227 32.15C185.277 32.03 185.344 31.9275 185.429 31.8425C185.514 31.7525 185.612 31.6825 185.722 31.6325C185.837 31.5825 185.959 31.5575 186.089 31.5575C186.219 31.5575 186.342 31.5825 186.457 31.6325C186.577 31.6825 186.679 31.7525 186.764 31.8425C186.854 31.9275 186.924 32.03 186.974 32.15C187.029 32.265 187.057 32.3875 187.057 32.5175ZM190.225 36.005C190.39 35.82 190.565 35.6525 190.75 35.5025C190.935 35.3525 191.13 35.225 191.335 35.12C191.545 35.01 191.765 34.9275 191.995 34.8725C192.23 34.8125 192.483 34.7825 192.753 34.7825C193.168 34.7825 193.533 34.8525 193.848 34.9925C194.168 35.1275 194.433 35.3225 194.643 35.5775C194.858 35.8275 195.02 36.13 195.13 36.485C195.24 36.84 195.295 37.2325 195.295 37.6625V42.5H193.953V37.6625C193.953 37.0875 193.82 36.6425 193.555 36.3275C193.295 36.0075 192.898 35.8475 192.363 35.8475C191.968 35.8475 191.598 35.9425 191.253 36.1325C190.913 36.3225 190.598 36.58 190.308 36.905V42.5H188.965V34.9025H189.768C189.958 34.9025 190.075 34.995 190.12 35.18L190.225 36.005ZM197.722 42.5V36.0425L196.882 35.945C196.772 35.92 196.685 35.8825 196.62 35.8325C196.555 35.7775 196.522 35.7 196.522 35.6V35.0525H197.722V34.6325C197.722 34.1675 197.795 33.7425 197.94 33.3575C198.085 32.9675 198.302 32.6325 198.592 32.3525C198.882 32.0725 199.242 31.855 199.672 31.7C200.107 31.545 200.61 31.4675 201.18 31.4675C201.37 31.4675 201.565 31.48 201.765 31.505C201.965 31.53 202.137 31.5675 202.282 31.6175L202.23 32.315C202.225 32.365 202.205 32.4 202.17 32.42C202.14 32.44 202.097 32.4525 202.042 32.4575C201.987 32.4625 201.917 32.465 201.832 32.465C201.752 32.46 201.66 32.4575 201.555 32.4575C200.665 32.4575 200.02 32.6425 199.62 33.0125C199.22 33.3775 199.02 33.93 199.02 34.67V35.0525H203.61V42.5H202.267V36.02H199.057V42.5H197.722ZM207.056 36.005C207.221 35.82 207.396 35.6525 207.581 35.5025C207.766 35.3525 207.961 35.225 208.166 35.12C208.376 35.01 208.596 34.9275 208.826 34.8725C209.061 34.8125 209.314 34.7825 209.584 34.7825C209.999 34.7825 210.364 34.8525 210.679 34.9925C210.999 35.1275 211.264 35.3225 211.474 35.5775C211.689 35.8275 211.851 36.13 211.961 36.485C212.071 36.84 212.126 37.2325 212.126 37.6625V42.5H210.784V37.6625C210.784 37.0875 210.651 36.6425 210.386 36.3275C210.126 36.0075 209.729 35.8475 209.194 35.8475C208.799 35.8475 208.429 35.9425 208.084 36.1325C207.744 36.3225 207.429 36.58 207.139 36.905V42.5H205.796V34.9025H206.599C206.789 34.9025 206.906 34.995 206.951 35.18L207.056 36.005ZM215.571 34.9025V42.5H214.236V34.9025H215.571ZM215.856 32.5175C215.856 32.6475 215.828 32.77 215.773 32.885C215.723 32.995 215.653 33.095 215.563 33.185C215.478 33.27 215.376 33.3375 215.256 33.3875C215.141 33.4375 215.018 33.4625 214.888 33.4625C214.758 33.4625 214.636 33.4375 214.521 33.3875C214.411 33.3375 214.313 33.27 214.228 33.185C214.143 33.095 214.076 32.995 214.026 32.885C213.976 32.77 213.951 32.6475 213.951 32.5175C213.951 32.3875 213.976 32.265 214.026 32.15C214.076 32.03 214.143 31.9275 214.228 31.8425C214.313 31.7525 214.411 31.6825 214.521 31.6325C214.636 31.5825 214.758 31.5575 214.888 31.5575C215.018 31.5575 215.141 31.5825 215.256 31.6325C215.376 31.6825 215.478 31.7525 215.563 31.8425C215.653 31.9275 215.723 32.03 215.773 32.15C215.828 32.265 215.856 32.3875 215.856 32.5175ZM220.097 42.62C219.497 42.62 219.034 42.4525 218.709 42.1175C218.389 41.7825 218.229 41.3 218.229 40.67V36.02H217.314C217.234 36.02 217.167 35.9975 217.112 35.9525C217.057 35.9025 217.029 35.8275 217.029 35.7275V35.195L218.274 35.0375L218.582 32.69C218.597 32.615 218.629 32.555 218.679 32.51C218.734 32.46 218.804 32.435 218.889 32.435H219.564V35.0525H221.762V36.02H219.564V40.58C219.564 40.9 219.642 41.1375 219.797 41.2925C219.952 41.4475 220.152 41.525 220.397 41.525C220.537 41.525 220.657 41.5075 220.757 41.4725C220.862 41.4325 220.952 41.39 221.027 41.345C221.102 41.3 221.164 41.26 221.214 41.225C221.269 41.185 221.317 41.165 221.357 41.165C221.427 41.165 221.489 41.2075 221.544 41.2925L221.934 41.93C221.704 42.145 221.427 42.315 221.102 42.44C220.777 42.56 220.442 42.62 220.097 42.62ZM229.388 34.9025V42.5H228.593C228.403 42.5 228.283 42.4075 228.233 42.2225L228.128 41.405C227.798 41.77 227.428 42.065 227.018 42.29C226.608 42.51 226.138 42.62 225.608 42.62C225.193 42.62 224.825 42.5525 224.505 42.4175C224.19 42.2775 223.925 42.0825 223.71 41.8325C223.495 41.5825 223.333 41.28 223.223 40.925C223.118 40.57 223.065 40.1775 223.065 39.7475V34.9025H224.4V39.7475C224.4 40.3225 224.53 40.7675 224.79 41.0825C225.055 41.3975 225.458 41.555 225.998 41.555C226.393 41.555 226.76 41.4625 227.1 41.2775C227.445 41.0875 227.763 40.8275 228.053 40.4975V34.9025H229.388ZM236.454 36.71C236.204 36.375 235.934 36.1425 235.644 36.0125C235.354 35.8775 235.029 35.81 234.669 35.81C233.964 35.81 233.422 36.0625 233.042 36.5675C232.662 37.0725 232.472 37.7925 232.472 38.7275C232.472 39.2225 232.514 39.6475 232.599 40.0025C232.684 40.3525 232.809 40.6425 232.974 40.8725C233.139 41.0975 233.342 41.2625 233.582 41.3675C233.822 41.4725 234.094 41.525 234.399 41.525C234.839 41.525 235.222 41.425 235.547 41.225C235.877 41.025 236.179 40.7425 236.454 40.3775V36.71ZM237.789 31.4525V42.5H236.994C236.804 42.5 236.684 42.4075 236.634 42.2225L236.514 41.3C236.189 41.69 235.819 42.005 235.404 42.245C234.989 42.485 234.509 42.605 233.964 42.605C233.529 42.605 233.134 42.5225 232.779 42.3575C232.424 42.1875 232.122 41.94 231.872 41.615C231.622 41.29 231.429 40.885 231.294 40.4C231.159 39.915 231.092 39.3575 231.092 38.7275C231.092 38.1675 231.167 37.6475 231.317 37.1675C231.467 36.6825 231.682 36.2625 231.962 35.9075C232.242 35.5525 232.584 35.275 232.989 35.075C233.399 34.87 233.859 34.7675 234.369 34.7675C234.834 34.7675 235.232 34.8475 235.562 35.0075C235.897 35.1625 236.194 35.38 236.454 35.66V31.4525H237.789ZM244.983 37.8725C244.983 37.5625 244.938 37.28 244.848 37.025C244.763 36.765 244.635 36.5425 244.465 36.3575C244.3 36.1675 244.098 36.0225 243.858 35.9225C243.618 35.8175 243.345 35.765 243.04 35.765C242.4 35.765 241.893 35.9525 241.518 36.3275C241.148 36.6975 240.918 37.2125 240.828 37.8725H244.983ZM246.063 41.435C245.898 41.635 245.7 41.81 245.47 41.96C245.24 42.105 244.993 42.225 244.728 42.32C244.468 42.415 244.198 42.485 243.918 42.53C243.638 42.58 243.36 42.605 243.085 42.605C242.56 42.605 242.075 42.5175 241.63 42.3425C241.19 42.1625 240.808 41.9025 240.483 41.5625C240.163 41.2175 239.913 40.7925 239.733 40.2875C239.553 39.7825 239.463 39.2025 239.463 38.5475C239.463 38.0175 239.543 37.5225 239.703 37.0625C239.868 36.6025 240.103 36.205 240.408 35.87C240.713 35.53 241.085 35.265 241.525 35.075C241.965 34.88 242.46 34.7825 243.01 34.7825C243.465 34.7825 243.885 34.86 244.27 35.015C244.66 35.165 244.995 35.385 245.275 35.675C245.56 35.96 245.783 36.315 245.943 36.74C246.103 37.16 246.183 37.64 246.183 38.18C246.183 38.39 246.16 38.53 246.115 38.6C246.07 38.67 245.985 38.705 245.86 38.705H240.783C240.798 39.185 240.863 39.6025 240.978 39.9575C241.098 40.3125 241.263 40.61 241.473 40.85C241.683 41.085 241.933 41.2625 242.223 41.3825C242.513 41.4975 242.838 41.555 243.198 41.555C243.533 41.555 243.82 41.5175 244.06 41.4425C244.305 41.3625 244.515 41.2775 244.69 41.1875C244.865 41.0975 245.01 41.015 245.125 40.94C245.245 40.86 245.348 40.82 245.433 40.82C245.543 40.82 245.628 40.8625 245.688 40.9475L246.063 41.435Z" fill="white"/>
</svg>
