<svg width="302" height="60" viewBox="0 0 302 60" fill="none" xmlns="http://www.w3.org/2000/svg">
<path d="M1.70323 3.33984C0.431637 5.45508 -0.176516 7.06934 0.0446305 7.68164C0.21049 8.18262 6.12616 18.7031 13.0923 31.0049L25.8082 53.4375H29.9547H34.0459L35.3175 51.3223C36.0362 50.209 42.0072 39.7998 48.6415 28.2773L60.6387 7.29199L58.6484 3.61816L56.6028 0H30.1758H3.69355L1.70323 3.33984ZM55.0548 1.50293C55.0548 1.89258 35.5939 35.9033 34.4329 37.5176C33.7142 38.5195 33.5483 38.4639 32.1661 36.0146C30.8945 33.8438 30.7287 33.2871 31.3368 32.1738C31.6686 31.4502 34.9305 25.7168 38.5241 19.3711C42.173 13.0254 45.1032 7.57031 45.1032 7.23633C45.1032 6.84668 37.8607 6.67969 22.9886 6.67969H0.873929L2.42195 3.89648L3.91469 1.11328H29.5124C43.5552 1.11328 55.0548 1.28027 55.0548 1.50293ZM58.4273 5.17676C59.3119 6.84668 59.3671 7.45898 58.8696 8.5166C57.0451 12.0234 34.8752 50.4873 34.3776 51.0996C33.88 51.6006 31.3368 47.6484 23.265 33.6211C17.4599 23.6572 12.7053 15.1406 12.5947 14.6953C12.4288 14.083 13.1476 13.916 15.4143 13.916H18.4551L25.8635 26.7744C29.8994 33.8994 33.4377 39.6885 33.7695 39.7441C34.2117 39.7998 43.9975 23.2119 54.5572 4.50879C56.3817 1.22461 56.3264 1.22461 58.4273 5.17676ZM42.7259 10.1309L41.3437 12.5244L35.3175 12.8584C32.0556 13.0811 25.2 13.248 20.1137 13.3037C14.972 13.3037 10.8255 13.4707 10.8255 13.6377C10.8255 13.749 15.8013 22.4326 21.8275 32.9531L32.8849 52.0459L29.7888 52.2129C28.0749 52.3242 26.5269 52.1572 26.2505 51.9346C25.587 51.2666 1.4268 8.73926 1.4268 8.23828C1.4268 7.95996 11.0467 7.79297 22.7674 7.79297H44.108L42.7259 10.1309ZM40.1274 14.3057C40.1274 14.9736 30.4523 31.7285 30.1205 31.7285C29.7888 31.7285 22.4357 19.2598 20.2795 15.1406L19.6161 13.916H29.8994C35.5386 13.916 40.1274 14.083 40.1274 14.3057Z" fill="white"/>
<path d="M108.424 6.5699C105.386 8.62541 104.373 11.6253 105.836 14.3475C106.905 16.5141 108.593 17.5697 112.701 18.7363C116.527 19.7918 117.428 20.3474 117.428 21.7918C117.428 24.0695 113.995 24.5695 110.169 22.8473L107.693 21.6807L106.061 23.2362C105.217 24.0695 104.485 24.9028 104.485 25.0695C104.485 25.2362 105.554 26.0139 106.905 26.7917C108.874 27.9028 110 28.125 113.883 28.125C118.384 28.125 118.609 28.0694 120.354 26.2917C121.929 24.7362 122.211 24.1251 122.211 21.7362C122.211 18.0697 120.241 16.0141 115.177 14.4586C110.281 13.0142 109.662 12.5698 110.45 11.3476C111.238 10.0698 113.714 9.79205 116.527 10.6254C118.609 11.2365 118.778 11.1809 120.016 9.68094C120.747 8.84763 121.31 7.95876 121.366 7.79209C121.366 7.56988 120.354 7.01433 119.116 6.51434C116.021 5.29215 110.225 5.3477 108.424 6.5699Z" fill="white"/>
<path d="M134.755 7.00104C131.561 8.4386 128.752 11.4243 127.1 15.0182C125.503 18.6674 125.558 25.3576 127.265 29.2833C128.697 32.5454 132.277 36.1393 135.416 37.4663C138.555 38.8486 144.833 38.738 147.862 37.2452C153.644 34.4253 156.728 29.1174 156.728 21.9849C156.728 14.9629 153.809 9.93145 148.137 7.11162C144.282 5.17644 138.72 5.12115 134.755 7.00104ZM144.392 11.2031C148.247 12.2537 151.552 17.1746 151.552 21.819C151.552 27.2375 149.349 30.942 145.218 32.5454C138.28 35.1994 131.175 30.1679 131.175 22.5931C131.175 14.1336 137.013 9.15738 144.392 11.2031Z" fill="white"/>
<path d="M82.5615 23.8723V41.5951L86.696 41.9295C89.7831 42.1524 91.933 42.7655 95.3509 44.2702C105.77 48.9517 109.298 49.3418 115.307 46.4438C119.496 44.4374 119.662 44.0473 117.842 41.8737L116.299 40.0346L113.487 41.4279C109.188 43.6572 106.266 43.4342 99.6507 40.369C96.6739 38.9757 92.815 37.5266 91.1613 37.1923L88.0742 36.5235V30.5044V24.4853H93.3112H98.5482V21.6987V18.9121H93.3112H88.0742V15.0109V11.1096H95.2406H102.407V8.60169V6.09375H92.4843H82.5615V23.8723Z" fill="white"/>
<path d="M159.993 8.6102V11.1266H164.679H169.365V24.5477V37.9688H172.121H174.877V24.5477V11.1266H179.563H184.249V8.6102V6.09375H172.121H159.993V8.6102Z" fill="white"/>
<path d="M187.98 22.0313V37.9688H198.009H208.038V35.4523V32.9359H200.795H193.552V28.7418V24.5477H198.845H204.138V21.7516V18.9556H198.845H193.552V15.0411V11.1266H200.795H208.038V8.6102V6.09375H198.009H187.98V22.0313Z" fill="white"/>
<path d="M213.635 21.8782V37.7181H216.103H218.517L218.682 33.3982L218.846 29.1336L221.535 28.9674C225.704 28.6905 226.582 29.1336 228.666 32.4012C230.696 35.6135 234.097 38.0504 236.95 38.3827C238.541 38.5489 238.596 38.4935 238.76 35.8904C238.925 33.6197 238.815 33.2874 237.828 33.2874C236.511 33.2874 233.055 30.352 232.561 28.8013C232.287 28.0259 232.726 27.3059 233.988 26.2536C239.419 21.6013 238.87 12.2968 232.945 8.08758C230.586 6.42606 230.477 6.42606 222.083 6.2599L213.635 6.09375V21.8782ZM229.873 12.5183C232.068 13.9583 233.11 16.9491 232.287 19.6075C231.409 22.5982 228.611 23.8167 222.851 23.8721H218.572V17.8906C218.572 14.5675 218.737 11.6876 219.011 11.466C219.724 10.6353 228.337 11.5214 229.873 12.5183Z" fill="white"/>
<path d="M247.198 20.4666C244.674 28.3773 242.425 35.3966 242.205 36.0094C241.876 37.0679 242.15 37.3464 244.29 38.0706L246.759 38.9062L247.527 36.6222L248.295 34.2824L255.153 34.1153L262.011 33.9482L262.724 36.4551L263.382 38.9062L265.796 38.0706C267.113 37.6249 268.21 37.0679 268.21 36.9007C268.21 36.6779 266.016 29.7143 263.382 21.4694L258.554 6.42801L255.153 6.26088L251.806 6.09375L247.198 20.4666ZM259.981 28.5444C259.981 28.823 257.731 28.9901 254.988 28.9901C251.203 28.9901 250.05 28.823 250.27 28.2659C250.38 27.9316 251.312 25.0348 252.245 21.8593C255.262 11.9432 254.824 12.0546 257.567 20.6338C258.883 24.7562 259.981 28.3216 259.981 28.5444Z" fill="white"/>
<path d="M132.158 50.7075C132.578 50.7075 132.948 50.6575 133.268 50.5575C133.593 50.4525 133.863 50.3075 134.078 50.1225C134.298 49.9325 134.463 49.7075 134.573 49.4475C134.683 49.1875 134.738 48.9 134.738 48.585C134.738 47.945 134.528 47.4625 134.108 47.1375C133.688 46.8125 133.058 46.65 132.218 46.65H130.628V50.7075H132.158ZM137.123 56.25H135.833C135.568 56.25 135.373 56.1475 135.248 55.9425L132.458 52.1025C132.373 51.9825 132.28 51.8975 132.18 51.8475C132.085 51.7925 131.935 51.765 131.73 51.765H130.628V56.25H129.18V45.5025H132.218C132.898 45.5025 133.485 45.5725 133.98 45.7125C134.475 45.8475 134.883 46.045 135.203 46.305C135.528 46.565 135.768 46.88 135.923 47.25C136.078 47.615 136.155 48.025 136.155 48.48C136.155 48.86 136.095 49.215 135.975 49.545C135.855 49.875 135.68 50.1725 135.45 50.4375C135.225 50.6975 134.948 50.92 134.618 51.105C134.293 51.29 133.923 51.43 133.508 51.525C133.693 51.63 133.853 51.7825 133.988 51.9825L137.123 56.25ZM142.871 51.6225C142.871 51.3125 142.826 51.03 142.736 50.775C142.651 50.515 142.524 50.2925 142.354 50.1075C142.189 49.9175 141.986 49.7725 141.746 49.6725C141.506 49.5675 141.234 49.515 140.929 49.515C140.289 49.515 139.781 49.7025 139.406 50.0775C139.036 50.4475 138.806 50.9625 138.716 51.6225H142.871ZM143.951 55.185C143.786 55.385 143.589 55.56 143.359 55.71C143.129 55.855 142.881 55.975 142.616 56.07C142.356 56.165 142.086 56.235 141.806 56.28C141.526 56.33 141.249 56.355 140.974 56.355C140.449 56.355 139.964 56.2675 139.519 56.0925C139.079 55.9125 138.696 55.6525 138.371 55.3125C138.051 54.9675 137.801 54.5425 137.621 54.0375C137.441 53.5325 137.351 52.9525 137.351 52.2975C137.351 51.7675 137.431 51.2725 137.591 50.8125C137.756 50.3525 137.991 49.955 138.296 49.62C138.601 49.28 138.974 49.015 139.414 48.825C139.854 48.63 140.349 48.5325 140.899 48.5325C141.354 48.5325 141.774 48.61 142.159 48.765C142.549 48.915 142.884 49.135 143.164 49.425C143.449 49.71 143.671 50.065 143.831 50.49C143.991 50.91 144.071 51.39 144.071 51.93C144.071 52.14 144.049 52.28 144.004 52.35C143.959 52.42 143.874 52.455 143.749 52.455H138.671C138.686 52.935 138.751 53.3525 138.866 53.7075C138.986 54.0625 139.151 54.36 139.361 54.6C139.571 54.835 139.821 55.0125 140.111 55.1325C140.401 55.2475 140.726 55.305 141.086 55.305C141.421 55.305 141.709 55.2675 141.949 55.1925C142.194 55.1125 142.404 55.0275 142.579 54.9375C142.754 54.8475 142.899 54.765 143.014 54.69C143.134 54.61 143.236 54.57 143.321 54.57C143.431 54.57 143.516 54.6125 143.576 54.6975L143.951 55.185ZM152.06 48.6525L148.962 56.25H147.762L144.665 48.6525H145.752C145.862 48.6525 145.952 48.68 146.022 48.735C146.092 48.79 146.14 48.855 146.165 48.93L148.092 53.82C148.152 54.005 148.205 54.185 148.25 54.36C148.295 54.535 148.337 54.71 148.377 54.885C148.417 54.71 148.46 54.535 148.505 54.36C148.55 54.185 148.605 54.005 148.67 53.82L150.62 48.93C150.65 48.85 150.7 48.785 150.77 48.735C150.84 48.68 150.922 48.6525 151.017 48.6525H152.06ZM158.164 51.6225C158.164 51.3125 158.119 51.03 158.029 50.775C157.944 50.515 157.816 50.2925 157.646 50.1075C157.481 49.9175 157.279 49.7725 157.039 49.6725C156.799 49.5675 156.526 49.515 156.221 49.515C155.581 49.515 155.074 49.7025 154.699 50.0775C154.329 50.4475 154.099 50.9625 154.009 51.6225H158.164ZM159.244 55.185C159.079 55.385 158.881 55.56 158.651 55.71C158.421 55.855 158.174 55.975 157.909 56.07C157.649 56.165 157.379 56.235 157.099 56.28C156.819 56.33 156.541 56.355 156.266 56.355C155.741 56.355 155.256 56.2675 154.811 56.0925C154.371 55.9125 153.989 55.6525 153.664 55.3125C153.344 54.9675 153.094 54.5425 152.914 54.0375C152.734 53.5325 152.644 52.9525 152.644 52.2975C152.644 51.7675 152.724 51.2725 152.884 50.8125C153.049 50.3525 153.284 49.955 153.589 49.62C153.894 49.28 154.266 49.015 154.706 48.825C155.146 48.63 155.641 48.5325 156.191 48.5325C156.646 48.5325 157.066 48.61 157.451 48.765C157.841 48.915 158.176 49.135 158.456 49.425C158.741 49.71 158.964 50.065 159.124 50.49C159.284 50.91 159.364 51.39 159.364 51.93C159.364 52.14 159.341 52.28 159.296 52.35C159.251 52.42 159.166 52.455 159.041 52.455H153.964C153.979 52.935 154.044 53.3525 154.159 53.7075C154.279 54.0625 154.444 54.36 154.654 54.6C154.864 54.835 155.114 55.0125 155.404 55.1325C155.694 55.2475 156.019 55.305 156.379 55.305C156.714 55.305 157.001 55.2675 157.241 55.1925C157.486 55.1125 157.696 55.0275 157.871 54.9375C158.046 54.8475 158.191 54.765 158.306 54.69C158.426 54.61 158.529 54.57 158.614 54.57C158.724 54.57 158.809 54.6125 158.869 54.6975L159.244 55.185ZM162.384 45.2025V56.25H161.049V45.2025H162.384ZM168.666 52.83C168.051 52.85 167.526 52.9 167.091 52.98C166.661 53.055 166.309 53.155 166.034 53.28C165.764 53.405 165.566 53.5525 165.441 53.7225C165.321 53.8925 165.261 54.0825 165.261 54.2925C165.261 54.4925 165.294 54.665 165.359 54.81C165.424 54.955 165.511 55.075 165.621 55.17C165.736 55.26 165.869 55.3275 166.019 55.3725C166.174 55.4125 166.339 55.4325 166.514 55.4325C166.749 55.4325 166.964 55.41 167.159 55.365C167.354 55.315 167.536 55.245 167.706 55.155C167.881 55.065 168.046 54.9575 168.201 54.8325C168.361 54.7075 168.516 54.565 168.666 54.405V52.83ZM164.354 49.725C164.774 49.32 165.226 49.0175 165.711 48.8175C166.196 48.6175 166.734 48.5175 167.324 48.5175C167.749 48.5175 168.126 48.5875 168.456 48.7275C168.786 48.8675 169.064 49.0625 169.289 49.3125C169.514 49.5625 169.684 49.865 169.799 50.22C169.914 50.575 169.971 50.965 169.971 51.39V56.25H169.379C169.249 56.25 169.149 56.23 169.079 56.19C169.009 56.145 168.954 56.06 168.914 55.935L168.764 55.215C168.564 55.4 168.369 55.565 168.179 55.71C167.989 55.85 167.789 55.97 167.579 56.07C167.369 56.165 167.144 56.2375 166.904 56.2875C166.669 56.3425 166.406 56.37 166.116 56.37C165.821 56.37 165.544 56.33 165.284 56.25C165.024 56.165 164.796 56.04 164.601 55.875C164.411 55.71 164.259 55.5025 164.144 55.2525C164.034 54.9975 163.979 54.6975 163.979 54.3525C163.979 54.0525 164.061 53.765 164.226 53.49C164.391 53.21 164.659 52.9625 165.029 52.7475C165.399 52.5325 165.881 52.3575 166.476 52.2225C167.071 52.0825 167.801 52.0025 168.666 51.9825V51.39C168.666 50.8 168.539 50.355 168.284 50.055C168.029 49.75 167.656 49.5975 167.166 49.5975C166.836 49.5975 166.559 49.64 166.334 49.725C166.114 49.805 165.921 49.8975 165.756 50.0025C165.596 50.1025 165.456 50.195 165.336 50.28C165.221 50.36 165.106 50.4 164.991 50.4C164.901 50.4 164.824 50.3775 164.759 50.3325C164.694 50.2825 164.639 50.2225 164.594 50.1525L164.354 49.725ZM173.265 49.755C173.43 49.57 173.605 49.4025 173.79 49.2525C173.975 49.1025 174.17 48.975 174.375 48.87C174.585 48.76 174.805 48.6775 175.035 48.6225C175.27 48.5625 175.522 48.5325 175.792 48.5325C176.207 48.5325 176.572 48.6025 176.887 48.7425C177.207 48.8775 177.472 49.0725 177.682 49.3275C177.897 49.5775 178.06 49.88 178.17 50.235C178.28 50.59 178.335 50.9825 178.335 51.4125V56.25H176.992V51.4125C176.992 50.8375 176.86 50.3925 176.595 50.0775C176.335 49.7575 175.937 49.5975 175.402 49.5975C175.007 49.5975 174.637 49.6925 174.292 49.8825C173.952 50.0725 173.637 50.33 173.347 50.655V56.25H172.005V48.6525H172.807C172.997 48.6525 173.115 48.745 173.16 48.93L173.265 49.755ZM185.319 50.46C185.069 50.125 184.799 49.8925 184.509 49.7625C184.219 49.6275 183.894 49.56 183.534 49.56C182.829 49.56 182.287 49.8125 181.907 50.3175C181.527 50.8225 181.337 51.5425 181.337 52.4775C181.337 52.9725 181.379 53.3975 181.464 53.7525C181.549 54.1025 181.674 54.3925 181.839 54.6225C182.004 54.8475 182.207 55.0125 182.447 55.1175C182.687 55.2225 182.959 55.275 183.264 55.275C183.704 55.275 184.087 55.175 184.412 54.975C184.742 54.775 185.044 54.4925 185.319 54.1275V50.46ZM186.654 45.2025V56.25H185.859C185.669 56.25 185.549 56.1575 185.499 55.9725L185.379 55.05C185.054 55.44 184.684 55.755 184.269 55.995C183.854 56.235 183.374 56.355 182.829 56.355C182.394 56.355 181.999 56.2725 181.644 56.1075C181.289 55.9375 180.987 55.69 180.737 55.365C180.487 55.04 180.294 54.635 180.159 54.15C180.024 53.665 179.957 53.1075 179.957 52.4775C179.957 51.9175 180.032 51.3975 180.182 50.9175C180.332 50.4325 180.547 50.0125 180.827 49.6575C181.107 49.3025 181.449 49.025 181.854 48.825C182.264 48.62 182.724 48.5175 183.234 48.5175C183.699 48.5175 184.097 48.5975 184.427 48.7575C184.762 48.9125 185.059 49.13 185.319 49.41V45.2025H186.654ZM191.965 48.5325C192.52 48.5325 193.02 48.625 193.465 48.81C193.91 48.995 194.29 49.2575 194.605 49.5975C194.92 49.9375 195.16 50.35 195.325 50.835C195.495 51.315 195.58 51.8525 195.58 52.4475C195.58 53.0475 195.495 53.5875 195.325 54.0675C195.16 54.5475 194.92 54.9575 194.605 55.2975C194.29 55.6375 193.91 55.9 193.465 56.085C193.02 56.265 192.52 56.355 191.965 56.355C191.405 56.355 190.9 56.265 190.45 56.085C190.005 55.9 189.625 55.6375 189.31 55.2975C188.995 54.9575 188.753 54.5475 188.583 54.0675C188.418 53.5875 188.335 53.0475 188.335 52.4475C188.335 51.8525 188.418 51.315 188.583 50.835C188.753 50.35 188.995 49.9375 189.31 49.5975C189.625 49.2575 190.005 48.995 190.45 48.81C190.9 48.625 191.405 48.5325 191.965 48.5325ZM191.965 55.3125C192.715 55.3125 193.275 55.0625 193.645 54.5625C194.015 54.0575 194.2 53.355 194.2 52.455C194.2 51.55 194.015 50.845 193.645 50.34C193.275 49.835 192.715 49.5825 191.965 49.5825C191.585 49.5825 191.253 49.6475 190.968 49.7775C190.688 49.9075 190.453 50.095 190.263 50.34C190.078 50.585 189.938 50.8875 189.843 51.2475C189.753 51.6025 189.708 52.005 189.708 52.455C189.708 53.355 189.893 54.0575 190.263 54.5625C190.638 55.0625 191.205 55.3125 191.965 55.3125ZM205.536 49.905C205.476 50.015 205.384 50.07 205.259 50.07C205.184 50.07 205.099 50.0425 205.004 49.9875C204.909 49.9325 204.791 49.8725 204.651 49.8075C204.516 49.7375 204.354 49.675 204.164 49.62C203.974 49.56 203.749 49.53 203.489 49.53C203.264 49.53 203.061 49.56 202.881 49.62C202.701 49.675 202.546 49.7525 202.416 49.8525C202.291 49.9525 202.194 50.07 202.124 50.205C202.059 50.335 202.026 50.4775 202.026 50.6325C202.026 50.8275 202.081 50.99 202.191 51.12C202.306 51.25 202.456 51.3625 202.641 51.4575C202.826 51.5525 203.036 51.6375 203.271 51.7125C203.506 51.7825 203.746 51.86 203.991 51.945C204.241 52.025 204.484 52.115 204.719 52.215C204.954 52.315 205.164 52.44 205.349 52.59C205.534 52.74 205.681 52.925 205.791 53.145C205.906 53.36 205.964 53.62 205.964 53.925C205.964 54.275 205.901 54.6 205.776 54.9C205.651 55.195 205.466 55.4525 205.221 55.6725C204.976 55.8875 204.676 56.0575 204.321 56.1825C203.966 56.3075 203.556 56.37 203.091 56.37C202.561 56.37 202.081 56.285 201.651 56.115C201.221 55.94 200.856 55.7175 200.556 55.4475L200.871 54.9375C200.911 54.8725 200.959 54.8225 201.014 54.7875C201.069 54.7525 201.139 54.735 201.224 54.735C201.314 54.735 201.409 54.77 201.509 54.84C201.609 54.91 201.729 54.9875 201.869 55.0725C202.014 55.1575 202.189 55.235 202.394 55.305C202.599 55.375 202.854 55.41 203.159 55.41C203.419 55.41 203.646 55.3775 203.841 55.3125C204.036 55.2425 204.199 55.15 204.329 55.035C204.459 54.92 204.554 54.7875 204.614 54.6375C204.679 54.4875 204.711 54.3275 204.711 54.1575C204.711 53.9475 204.654 53.775 204.539 53.64C204.429 53.5 204.281 53.3825 204.096 53.2875C203.911 53.1875 203.699 53.1025 203.459 53.0325C203.224 52.9575 202.981 52.88 202.731 52.8C202.486 52.72 202.244 52.63 202.004 52.53C201.769 52.425 201.559 52.295 201.374 52.14C201.189 51.985 201.039 51.795 200.924 51.57C200.814 51.34 200.759 51.0625 200.759 50.7375C200.759 50.4475 200.819 50.17 200.939 49.905C201.059 49.635 201.234 49.4 201.464 49.2C201.694 48.995 201.976 48.8325 202.311 48.7125C202.646 48.5925 203.029 48.5325 203.459 48.5325C203.959 48.5325 204.406 48.6125 204.801 48.7725C205.201 48.9275 205.546 49.1425 205.836 49.4175L205.536 49.905ZM213.848 48.6525V56.25H213.053C212.863 56.25 212.743 56.1575 212.693 55.9725L212.588 55.155C212.258 55.52 211.888 55.815 211.478 56.04C211.068 56.26 210.598 56.37 210.068 56.37C209.653 56.37 209.285 56.3025 208.965 56.1675C208.65 56.0275 208.385 55.8325 208.17 55.5825C207.955 55.3325 207.793 55.03 207.683 54.675C207.578 54.32 207.525 53.9275 207.525 53.4975V48.6525H208.86V53.4975C208.86 54.0725 208.99 54.5175 209.25 54.8325C209.515 55.1475 209.918 55.305 210.458 55.305C210.853 55.305 211.22 55.2125 211.56 55.0275C211.905 54.8375 212.223 54.5775 212.513 54.2475V48.6525H213.848ZM220.082 52.83C219.467 52.85 218.942 52.9 218.507 52.98C218.077 53.055 217.725 53.155 217.45 53.28C217.18 53.405 216.982 53.5525 216.857 53.7225C216.737 53.8925 216.677 54.0825 216.677 54.2925C216.677 54.4925 216.71 54.665 216.775 54.81C216.84 54.955 216.927 55.075 217.037 55.17C217.152 55.26 217.285 55.3275 217.435 55.3725C217.59 55.4125 217.755 55.4325 217.93 55.4325C218.165 55.4325 218.38 55.41 218.575 55.365C218.77 55.315 218.952 55.245 219.122 55.155C219.297 55.065 219.462 54.9575 219.617 54.8325C219.777 54.7075 219.932 54.565 220.082 54.405V52.83ZM215.77 49.725C216.19 49.32 216.642 49.0175 217.127 48.8175C217.612 48.6175 218.15 48.5175 218.74 48.5175C219.165 48.5175 219.542 48.5875 219.872 48.7275C220.202 48.8675 220.48 49.0625 220.705 49.3125C220.93 49.5625 221.1 49.865 221.215 50.22C221.33 50.575 221.387 50.965 221.387 51.39V56.25H220.795C220.665 56.25 220.565 56.23 220.495 56.19C220.425 56.145 220.37 56.06 220.33 55.935L220.18 55.215C219.98 55.4 219.785 55.565 219.595 55.71C219.405 55.85 219.205 55.97 218.995 56.07C218.785 56.165 218.56 56.2375 218.32 56.2875C218.085 56.3425 217.822 56.37 217.532 56.37C217.237 56.37 216.96 56.33 216.7 56.25C216.44 56.165 216.212 56.04 216.017 55.875C215.827 55.71 215.675 55.5025 215.56 55.2525C215.45 54.9975 215.395 54.6975 215.395 54.3525C215.395 54.0525 215.477 53.765 215.642 53.49C215.807 53.21 216.075 52.9625 216.445 52.7475C216.815 52.5325 217.297 52.3575 217.892 52.2225C218.487 52.0825 219.217 52.0025 220.082 51.9825V51.39C220.082 50.8 219.955 50.355 219.7 50.055C219.445 49.75 219.072 49.5975 218.582 49.5975C218.252 49.5975 217.975 49.64 217.75 49.725C217.53 49.805 217.337 49.8975 217.172 50.0025C217.012 50.1025 216.872 50.195 216.752 50.28C216.637 50.36 216.522 50.4 216.407 50.4C216.317 50.4 216.24 50.3775 216.175 50.3325C216.11 50.2825 216.055 50.2225 216.01 50.1525L215.77 49.725ZM228.669 48.6525V56.25H227.334V48.6525H228.669ZM228.954 46.2675C228.954 46.3975 228.926 46.52 228.871 46.635C228.821 46.745 228.751 46.845 228.661 46.935C228.576 47.02 228.474 47.0875 228.354 47.1375C228.239 47.1875 228.116 47.2125 227.986 47.2125C227.856 47.2125 227.734 47.1875 227.619 47.1375C227.509 47.0875 227.411 47.02 227.326 46.935C227.241 46.845 227.174 46.745 227.124 46.635C227.074 46.52 227.049 46.3975 227.049 46.2675C227.049 46.1375 227.074 46.015 227.124 45.9C227.174 45.78 227.241 45.6775 227.326 45.5925C227.411 45.5025 227.509 45.4325 227.619 45.3825C227.734 45.3325 227.856 45.3075 227.986 45.3075C228.116 45.3075 228.239 45.3325 228.354 45.3825C228.474 45.4325 228.576 45.5025 228.661 45.5925C228.751 45.6775 228.821 45.78 228.871 45.9C228.926 46.015 228.954 46.1375 228.954 46.2675ZM232.122 49.755C232.287 49.57 232.462 49.4025 232.647 49.2525C232.832 49.1025 233.027 48.975 233.232 48.87C233.442 48.76 233.662 48.6775 233.892 48.6225C234.127 48.5625 234.38 48.5325 234.65 48.5325C235.065 48.5325 235.43 48.6025 235.745 48.7425C236.065 48.8775 236.33 49.0725 236.54 49.3275C236.755 49.5775 236.917 49.88 237.027 50.235C237.137 50.59 237.192 50.9825 237.192 51.4125V56.25H235.85V51.4125C235.85 50.8375 235.717 50.3925 235.452 50.0775C235.192 49.7575 234.795 49.5975 234.26 49.5975C233.865 49.5975 233.495 49.6925 233.15 49.8825C232.81 50.0725 232.495 50.33 232.205 50.655V56.25H230.862V48.6525H231.665C231.855 48.6525 231.972 48.745 232.017 48.93L232.122 49.755ZM239.619 56.25V49.7925L238.779 49.695C238.669 49.67 238.582 49.6325 238.517 49.5825C238.452 49.5275 238.419 49.45 238.419 49.35V48.8025H239.619V48.3825C239.619 47.9175 239.692 47.4925 239.837 47.1075C239.982 46.7175 240.199 46.3825 240.489 46.1025C240.779 45.8225 241.139 45.605 241.569 45.45C242.004 45.295 242.507 45.2175 243.077 45.2175C243.267 45.2175 243.462 45.23 243.662 45.255C243.862 45.28 244.034 45.3175 244.179 45.3675L244.127 46.065C244.122 46.115 244.102 46.15 244.067 46.17C244.037 46.19 243.994 46.2025 243.939 46.2075C243.884 46.2125 243.814 46.215 243.729 46.215C243.649 46.21 243.557 46.2075 243.452 46.2075C242.562 46.2075 241.917 46.3925 241.517 46.7625C241.117 47.1275 240.917 47.68 240.917 48.42V48.8025H245.507V56.25H244.164V49.77H240.954V56.25H239.619ZM248.953 49.755C249.118 49.57 249.293 49.4025 249.478 49.2525C249.663 49.1025 249.858 48.975 250.063 48.87C250.273 48.76 250.493 48.6775 250.723 48.6225C250.958 48.5625 251.211 48.5325 251.481 48.5325C251.896 48.5325 252.261 48.6025 252.576 48.7425C252.896 48.8775 253.161 49.0725 253.371 49.3275C253.586 49.5775 253.748 49.88 253.858 50.235C253.968 50.59 254.023 50.9825 254.023 51.4125V56.25H252.681V51.4125C252.681 50.8375 252.548 50.3925 252.283 50.0775C252.023 49.7575 251.626 49.5975 251.091 49.5975C250.696 49.5975 250.326 49.6925 249.981 49.8825C249.641 50.0725 249.326 50.33 249.036 50.655V56.25H247.693V48.6525H248.496C248.686 48.6525 248.803 48.745 248.848 48.93L248.953 49.755ZM257.468 48.6525V56.25H256.133V48.6525H257.468ZM257.753 46.2675C257.753 46.3975 257.725 46.52 257.67 46.635C257.62 46.745 257.55 46.845 257.46 46.935C257.375 47.02 257.273 47.0875 257.153 47.1375C257.037 47.1875 256.915 47.2125 256.785 47.2125C256.655 47.2125 256.533 47.1875 256.418 47.1375C256.308 47.0875 256.21 47.02 256.125 46.935C256.04 46.845 255.973 46.745 255.923 46.635C255.873 46.52 255.848 46.3975 255.848 46.2675C255.848 46.1375 255.873 46.015 255.923 45.9C255.973 45.78 256.04 45.6775 256.125 45.5925C256.21 45.5025 256.308 45.4325 256.418 45.3825C256.533 45.3325 256.655 45.3075 256.785 45.3075C256.915 45.3075 257.037 45.3325 257.153 45.3825C257.273 45.4325 257.375 45.5025 257.46 45.5925C257.55 45.6775 257.62 45.78 257.67 45.9C257.725 46.015 257.753 46.1375 257.753 46.2675ZM261.994 56.37C261.394 56.37 260.931 56.2025 260.606 55.8675C260.286 55.5325 260.126 55.05 260.126 54.42V49.77H259.211C259.131 49.77 259.064 49.7475 259.009 49.7025C258.954 49.6525 258.926 49.5775 258.926 49.4775V48.945L260.171 48.7875L260.479 46.44C260.494 46.365 260.526 46.305 260.576 46.26C260.631 46.21 260.701 46.185 260.786 46.185H261.461V48.8025H263.659V49.77H261.461V54.33C261.461 54.65 261.539 54.8875 261.694 55.0425C261.849 55.1975 262.049 55.275 262.294 55.275C262.434 55.275 262.554 55.2575 262.654 55.2225C262.759 55.1825 262.849 55.14 262.924 55.095C262.999 55.05 263.061 55.01 263.111 54.975C263.166 54.935 263.214 54.915 263.254 54.915C263.324 54.915 263.386 54.9575 263.441 55.0425L263.831 55.68C263.601 55.895 263.324 56.065 262.999 56.19C262.674 56.31 262.339 56.37 261.994 56.37ZM271.284 48.6525V56.25H270.489C270.299 56.25 270.179 56.1575 270.129 55.9725L270.024 55.155C269.694 55.52 269.324 55.815 268.914 56.04C268.504 56.26 268.034 56.37 267.504 56.37C267.089 56.37 266.722 56.3025 266.402 56.1675C266.087 56.0275 265.822 55.8325 265.607 55.5825C265.392 55.3325 265.229 55.03 265.119 54.675C265.014 54.32 264.962 53.9275 264.962 53.4975V48.6525H266.297V53.4975C266.297 54.0725 266.427 54.5175 266.687 54.8325C266.952 55.1475 267.354 55.305 267.894 55.305C268.289 55.305 268.657 55.2125 268.997 55.0275C269.342 54.8375 269.659 54.5775 269.949 54.2475V48.6525H271.284ZM278.351 50.46C278.101 50.125 277.831 49.8925 277.541 49.7625C277.251 49.6275 276.926 49.56 276.566 49.56C275.861 49.56 275.319 49.8125 274.939 50.3175C274.559 50.8225 274.369 51.5425 274.369 52.4775C274.369 52.9725 274.411 53.3975 274.496 53.7525C274.581 54.1025 274.706 54.3925 274.871 54.6225C275.036 54.8475 275.239 55.0125 275.479 55.1175C275.719 55.2225 275.991 55.275 276.296 55.275C276.736 55.275 277.119 55.175 277.444 54.975C277.774 54.775 278.076 54.4925 278.351 54.1275V50.46ZM279.686 45.2025V56.25H278.891C278.701 56.25 278.581 56.1575 278.531 55.9725L278.411 55.05C278.086 55.44 277.716 55.755 277.301 55.995C276.886 56.235 276.406 56.355 275.861 56.355C275.426 56.355 275.031 56.2725 274.676 56.1075C274.321 55.9375 274.019 55.69 273.769 55.365C273.519 55.04 273.326 54.635 273.191 54.15C273.056 53.665 272.989 53.1075 272.989 52.4775C272.989 51.9175 273.064 51.3975 273.214 50.9175C273.364 50.4325 273.579 50.0125 273.859 49.6575C274.139 49.3025 274.481 49.025 274.886 48.825C275.296 48.62 275.756 48.5175 276.266 48.5175C276.731 48.5175 277.129 48.5975 277.459 48.7575C277.794 48.9125 278.091 49.13 278.351 49.41V45.2025H279.686ZM286.88 51.6225C286.88 51.3125 286.835 51.03 286.745 50.775C286.66 50.515 286.532 50.2925 286.362 50.1075C286.197 49.9175 285.995 49.7725 285.755 49.6725C285.515 49.5675 285.242 49.515 284.937 49.515C284.297 49.515 283.79 49.7025 283.415 50.0775C283.045 50.4475 282.815 50.9625 282.725 51.6225H286.88ZM287.96 55.185C287.795 55.385 287.597 55.56 287.367 55.71C287.137 55.855 286.89 55.975 286.625 56.07C286.365 56.165 286.095 56.235 285.815 56.28C285.535 56.33 285.257 56.355 284.982 56.355C284.457 56.355 283.972 56.2675 283.527 56.0925C283.087 55.9125 282.705 55.6525 282.38 55.3125C282.06 54.9675 281.81 54.5425 281.63 54.0375C281.45 53.5325 281.36 52.9525 281.36 52.2975C281.36 51.7675 281.44 51.2725 281.6 50.8125C281.765 50.3525 282 49.955 282.305 49.62C282.61 49.28 282.982 49.015 283.422 48.825C283.862 48.63 284.357 48.5325 284.907 48.5325C285.362 48.5325 285.782 48.61 286.167 48.765C286.557 48.915 286.892 49.135 287.172 49.425C287.457 49.71 287.68 50.065 287.84 50.49C288 50.91 288.08 51.39 288.08 51.93C288.08 52.14 288.057 52.28 288.012 52.35C287.967 52.42 287.882 52.455 287.757 52.455H282.68C282.695 52.935 282.76 53.3525 282.875 53.7075C282.995 54.0625 283.16 54.36 283.37 54.6C283.58 54.835 283.83 55.0125 284.12 55.1325C284.41 55.2475 284.735 55.305 285.095 55.305C285.43 55.305 285.717 55.2675 285.957 55.1925C286.202 55.1125 286.412 55.0275 286.587 54.9375C286.762 54.8475 286.907 54.765 287.022 54.69C287.142 54.61 287.245 54.57 287.33 54.57C287.44 54.57 287.525 54.6125 287.585 54.6975L287.96 55.185Z" fill="white"/>
</svg>
