<svg width="24" height="29" viewBox="0 0 24 29" fill="none" xmlns="http://www.w3.org/2000/svg">
<path d="M22.25 12.125C22.25 20 12.125 26.75 12.125 26.75C12.125 26.75 2 20 2 12.125C2 9.43968 3.06674 6.86435 4.96554 4.96554C6.86435 3.06674 9.43968 2 12.125 2C14.8103 2 17.3856 3.06674 19.2845 4.96554C21.1833 6.86435 22.25 9.43968 22.25 12.125Z" stroke="white" stroke-width="2.62069" stroke-linecap="round" stroke-linejoin="round"/>
<path d="M12.125 15.5C13.989 15.5 15.5 13.989 15.5 12.125C15.5 10.261 13.989 8.75 12.125 8.75C10.261 8.75 8.75 10.261 8.75 12.125C8.75 13.989 10.261 15.5 12.125 15.5Z" stroke="white" stroke-width="2.62069" stroke-linecap="round" stroke-linejoin="round"/>
</svg>
