<svg width="33" height="32" viewBox="0 0 33 32" fill="none" xmlns="http://www.w3.org/2000/svg">
<g clip-path="url(#clip0_168_1258)">
<path d="M28.4739 13.4484C28.4739 22.6208 16.6808 30.4828 16.6808 30.4828C16.6808 30.4828 4.8877 22.6208 4.8877 13.4484C4.8877 10.3206 6.13018 7.32103 8.34181 5.10939C10.5534 2.89776 13.5531 1.65527 16.6808 1.65527C19.8085 1.65527 22.8081 2.89776 25.0198 5.10939C27.2314 7.32103 28.4739 10.3206 28.4739 13.4484Z" stroke="#5A189A" stroke-width="2.62069" stroke-linecap="round" stroke-linejoin="round"/>
<path d="M16.681 17.3794C18.8521 17.3794 20.6121 15.6194 20.6121 13.4484C20.6121 11.2773 18.8521 9.51733 16.681 9.51733C14.51 9.51733 12.75 11.2773 12.75 13.4484C12.75 15.6194 14.51 17.3794 16.681 17.3794Z" stroke="#5A189A" stroke-width="2.62069" stroke-linecap="round" stroke-linejoin="round"/>
</g>
<defs>
<clipPath id="clip0_168_1258">
<rect width="31.4483" height="31.4483" fill="white" transform="translate(0.957031 0.344971)"/>
</clipPath>
</defs>
</svg>
