<svg width="146" height="128" viewBox="0 0 146 128" fill="none" xmlns="http://www.w3.org/2000/svg">
<path d="M4.07978 7.99999C1.03391 13.0667 -0.422812 16.9333 0.106904 18.4C0.504192 19.6 14.6741 44.8 31.3602 74.2667L61.8189 128H71.7511H81.5508L84.5967 122.933C86.3183 120.267 100.621 95.3333 116.512 67.7333L145.249 17.4667L140.482 8.66666L135.582 -6.67572e-06H72.2808H8.84723L4.07978 7.99999ZM131.874 3.59999C131.874 4.53333 85.2589 86 82.4778 89.8667C80.7563 92.2667 80.359 92.1333 77.0482 86.2667C74.0024 81.0667 73.6051 79.7333 75.0618 77.0667C75.8564 75.3333 83.6697 61.6 92.2776 46.4C101.018 31.2 108.037 18.1333 108.037 17.3333C108.037 16.4 90.6885 16 55.065 16H2.09334L5.80136 9.33333L9.37695 2.66666H70.6916C104.329 2.66666 131.874 3.06666 131.874 3.59999ZM139.952 12.4C142.071 16.4 142.203 17.8667 141.012 20.4C136.641 28.8 83.5373 120.933 82.3454 122.4C81.1536 123.6 75.0618 114.133 55.7272 80.5333C41.8221 56.6667 30.4332 36.2667 30.1683 35.2C29.771 33.7333 31.4926 33.3333 36.9222 33.3333H44.2058L61.9513 64.1333C71.6187 81.2 80.0941 95.0667 80.8887 95.2C81.9481 95.3333 105.388 55.6 130.682 10.8C135.052 2.93333 134.92 2.93333 139.952 12.4ZM102.342 24.2667L99.0315 30L84.5967 30.8C76.7834 31.3333 60.3622 31.7333 48.1787 31.8667C35.8628 31.8667 25.9306 32.2667 25.9306 32.6667C25.9306 32.9333 37.8492 53.7333 52.284 78.9333L78.7698 124.667L71.3538 125.067C67.2485 125.333 63.5405 124.933 62.8783 124.4C61.2892 122.8 3.41763 20.9333 3.41763 19.7333C3.41763 19.0667 26.4603 18.6667 54.5353 18.6667H105.653L102.342 24.2667ZM96.1181 34.2667C96.1181 35.8667 72.9429 76 72.1484 76C71.3538 76 53.7407 46.1333 48.576 36.2667L46.9868 33.3333H71.6187C85.1264 33.3333 96.1181 33.7333 96.1181 34.2667Z" fill="white"/>
</svg>
