<svg width="61" height="54" viewBox="0 0 61 54" fill="none" xmlns="http://www.w3.org/2000/svg">
<path d="M1.70323 3.33984C0.431637 5.45508 -0.176516 7.06934 0.0446305 7.68164C0.21049 8.18262 6.12616 18.7031 13.0923 31.0049L25.8082 53.4375H29.9547H34.0459L35.3175 51.3223C36.0362 50.209 42.0072 39.7998 48.6415 28.2773L60.6387 7.29199L58.6484 3.61816L56.6028 0H30.1758H3.69355L1.70323 3.33984ZM55.0548 1.50293C55.0548 1.89258 35.5939 35.9033 34.4329 37.5176C33.7142 38.5195 33.5483 38.4639 32.1661 36.0146C30.8945 33.8438 30.7287 33.2871 31.3368 32.1738C31.6686 31.4502 34.9305 25.7168 38.5241 19.3711C42.173 13.0254 45.1032 7.57031 45.1032 7.23633C45.1032 6.84668 37.8607 6.67969 22.9886 6.67969H0.873929L2.42195 3.89648L3.91469 1.11328H29.5124C43.5552 1.11328 55.0548 1.28027 55.0548 1.50293ZM58.4273 5.17676C59.3119 6.84668 59.3671 7.45898 58.8696 8.5166C57.0451 12.0234 34.8752 50.4873 34.3776 51.0996C33.88 51.6006 31.3368 47.6484 23.265 33.6211C17.4599 23.6572 12.7053 15.1406 12.5947 14.6953C12.4288 14.083 13.1476 13.916 15.4143 13.916H18.4551L25.8635 26.7744C29.8994 33.8994 33.4377 39.6885 33.7695 39.7441C34.2117 39.7998 43.9975 23.2119 54.5572 4.50879C56.3817 1.22461 56.3264 1.22461 58.4273 5.17676ZM42.7259 10.1309L41.3437 12.5244L35.3175 12.8584C32.0556 13.0811 25.2 13.248 20.1137 13.3037C14.972 13.3037 10.8255 13.4707 10.8255 13.6377C10.8255 13.749 15.8013 22.4326 21.8275 32.9531L32.8849 52.0459L29.7888 52.2129C28.0749 52.3242 26.5269 52.1572 26.2505 51.9346C25.587 51.2666 1.4268 8.73926 1.4268 8.23828C1.4268 7.95996 11.0467 7.79297 22.7674 7.79297H44.108L42.7259 10.1309ZM40.1274 14.3057C40.1274 14.9736 30.4523 31.7285 30.1205 31.7285C29.7888 31.7285 22.4357 19.2598 20.2795 15.1406L19.6161 13.916H29.8994C35.5386 13.916 40.1274 14.083 40.1274 14.3057Z" fill="white"/>
</svg>
